<svg width="93" height="23" viewBox="0 0 93 23" fill="none" xmlns="http://www.w3.org/2000/svg">
<g clip-path="url(#clip0_3819_201)">
<path d="M12.3931 0V3.91804H16.315C16.7103 3.91804 17.0316 4.23935 17.0316 4.63466V7.62967H20.9516V4.30167C20.9516 1.92981 19.0218 0 16.6499 0H12.3931Z" fill="#3969FA"/>
<path d="M12.3931 19.1873V15.2692H16.315C16.7103 15.2692 17.0316 14.9479 17.0316 14.5526V11.5576H20.9516V14.8876C20.9516 17.2594 19.0218 19.1892 16.6499 19.1892H12.3931V19.1873Z" fill="#3969FA"/>
<path d="M8.55855 0V3.91804H4.63661C4.2413 3.91804 3.91999 4.23935 3.91999 4.63466V7.62967H0V4.30167C0 1.92981 1.92981 0 4.30167 0H8.55855Z" fill="#3969FA"/>
<path d="M8.55855 15.2653V19.1834H4.5743C4.21209 19.1834 3.91804 19.4794 3.91804 19.8396V22.9982H0V11.5537H3.91804V14.5507C3.91804 14.946 4.23935 15.2673 4.63466 15.2673H8.5566L8.55855 15.2653Z" fill="#3969FA"/>
<path d="M90.6096 6.11674V4.98729H90.1831V4.81787H91.2152V4.98729H90.7868V6.11674H90.6096Z" fill="#1A1B1E"/>
<path d="M91.3945 6.11674V4.81787H91.6302L92.043 5.43712L92.4597 4.81787H92.6934V6.11674H92.5162V5.0535L92.1306 5.62212H91.9554L91.5737 5.05545V6.11674H91.3945Z" fill="#1A1B1E"/>
<path d="M80.1545 10.6658V16.9148H83.0482V18.868H79.6209C78.8283 18.868 78.1876 18.2273 78.1876 17.4347V10.0679H76.5928V8.17708H78.1876V5.00098H80.1545V8.17708H83.2001V10.0679H80.1545V10.6658Z" fill="#1A1B1E"/>
<path d="M50.913 10.1067L50.9052 10.7006V18.7548H48.9229V9.43874C48.9229 8.67149 49.5441 8.05029 50.3113 8.05029H54.8058V10.1067H50.915H50.913Z" fill="#1A1B1E"/>
<path d="M65.2748 8.17514H62.5037L58.1475 11.9744V5.00098H56.1924V18.757H58.1475V14.2664L62.8503 18.757H65.5747L59.6547 13.0961L65.2748 8.17514Z" fill="#1A1B1E"/>
<path d="M71.5647 8.18065C70.5735 8.18065 68.9397 8.18065 67.7713 8.17676C67.004 8.17676 66.3828 8.79796 66.3828 9.56521V18.7566H68.3379V9.88263L71.2843 9.87094C73.0485 9.87094 73.9813 10.94 73.9813 12.9633V18.7566H75.9365V12.8387C75.9365 9.75605 74.3435 8.18065 71.5647 8.18065Z" fill="#1A1B1E"/>
<path d="M86.7775 10.0718L86.7599 10.6658V16.9148H89.6576V18.868H86.2302C85.4377 18.868 84.797 18.2273 84.797 17.4347V10.0679H83.1982V8.17708H84.797V5.00098H86.7599V8.17708H89.6576V10.0679L86.7775 10.0718Z" fill="#1A1B1E"/>
<path d="M34.5184 14.157C34.5184 16.1803 33.5857 17.2494 31.8214 17.2494L29.0347 17.2397V9.88263L31.8214 9.87289C33.5857 9.87289 34.5184 10.942 34.5184 12.9653V14.159V14.157ZM36.4677 14.2817V12.8406H36.4736C36.4736 12.7881 36.4697 12.7394 36.4677 12.6887V12.6556C36.4035 9.69763 34.8222 8.18261 32.1018 8.18261C31.1106 8.18261 29.4768 8.18261 28.3084 8.17871C27.5411 8.17871 26.9199 8.79991 26.9199 9.56716V18.7586V23.0018H29.0347V18.9436C30.0882 18.9436 31.3034 18.9416 32.1018 18.9416C34.7911 18.9416 36.3665 17.4617 36.4658 14.5718H36.4697V14.4336C36.4697 14.3829 36.4755 14.3342 36.4755 14.2817H36.4697H36.4677Z" fill="#1A1B1E"/>
<path d="M39.6729 12.8076C39.6729 10.7843 40.6057 9.71518 42.37 9.71518L45.1566 9.72492V17.082L42.37 17.0917C40.6057 17.0917 39.6729 16.0226 39.6729 13.9993V12.8056V12.8076ZM37.7178 14.1259C37.7178 14.1785 37.7217 14.2272 37.7236 14.2778V14.4161H37.7275C37.8268 17.304 39.4022 18.7839 42.0915 18.7839C42.8899 18.7839 44.105 18.7839 45.1586 18.7859L47.2734 18.7645V18.6009V9.40945C47.2734 8.6422 46.6522 8.021 45.8849 8.021C44.7165 8.021 43.0827 8.02294 42.0915 8.02294C39.3691 8.02294 37.7898 9.53992 37.7256 12.496V12.5291C37.7256 12.5797 37.7197 12.6284 37.7197 12.681H37.7256V14.124H37.7197L37.7178 14.1259Z" fill="#1A1B1E"/>
</g>
<defs>
<clipPath id="clip0_3819_201">
<rect width="92.6933" height="23" fill="white"/>
</clipPath>
</defs>
</svg>
