<svg width="28" height="20" viewBox="0 0 28 20" fill="none" xmlns="http://www.w3.org/2000/svg">
<path d="M23.349 6.77406L16.0599 14.0616C14.9234 15.1981 13.0735 15.1981 11.937 14.0616L4.6543 6.7773L6.53172 4.89988L13.6555 12.0237C13.8436 12.2118 14.1533 12.2118 14.3413 12.0237L21.47 4.89502L23.349 6.77406Z" fill="#3969FA"/>
<path d="M27.2992 3.29002V16.8567C27.2992 18.4634 25.9909 19.7717 24.3826 19.7717H3.61424C2.00757 19.7717 0.699219 18.4634 0.699219 16.8567V11.7368H3.35646V16.6297C3.35646 16.8973 3.5737 17.1145 3.84121 17.1145H24.1572C24.4247 17.1145 24.6436 16.8973 24.6436 16.6297V3.517C24.6436 3.24949 24.4247 3.03062 24.1572 3.03062H3.84121C3.70665 3.03062 3.58668 3.08574 3.49913 3.17329C3.41158 3.26084 3.35646 3.38405 3.35646 3.517V8.40996H0.699219V3.29002C0.699219 1.68335 2.00757 0.375 3.61424 0.375H24.3826C25.9909 0.375 27.2992 1.68335 27.2992 3.29002Z" fill="#3969FA"/>
</svg>
