<svg width="22" height="22" viewBox="0 0 22 22" fill="none" xmlns="http://www.w3.org/2000/svg">
<path d="M21.4367 3.6465V9.173H18.5702V3.88975C18.5702 3.601 18.3339 3.3665 18.0452 3.3665H12.7637V0.5H18.2884C20.0227 0.5 21.4349 1.91225 21.4349 3.6465H21.4367Z" fill="#3969FA"/>
<path d="M9.173 0.5V3.3665H3.8915C3.60275 3.3665 3.3665 3.601 3.3665 3.88975V9.173H0.5V3.6465C0.5 1.91225 1.91225 0.5 3.6465 0.5H9.173Z" fill="#3969FA"/>
<path d="M9.173 18.5689V21.4354H3.6465C1.91225 21.4354 0.5 20.0232 0.5 18.2889V12.7642H3.3665V18.0457C3.3665 18.3344 3.601 18.5689 3.8915 18.5689H9.173Z" fill="#3969FA"/>
<path d="M21.4369 12.7642V18.2889C21.4369 20.0232 20.0246 21.4354 18.2904 21.4354H12.7656V18.5689H18.0471C18.3359 18.5689 18.5721 18.3344 18.5721 18.0457V12.7642H21.4386H21.4369Z" fill="#3969FA"/>
</svg>
