<svg width="22" height="26" viewBox="0 0 22 26" fill="none" xmlns="http://www.w3.org/2000/svg">
<path fill-rule="evenodd" clip-rule="evenodd" d="M19.0098 4.97777C19.5197 5.15627 19.8603 5.63694 19.8603 6.1771V14.0789C19.8603 16.2874 19.0577 18.3956 17.6402 20.0289C16.9273 20.8514 16.0255 21.4919 15.0677 22.0099L10.9167 24.2523L6.75865 22.0088C5.79965 21.4908 4.89665 20.8514 4.18265 20.0278C2.76398 18.3944 1.95898 16.2851 1.95898 14.0743V6.1771C1.95898 5.63694 2.29965 5.15627 2.80948 4.97777L10.4885 2.27927C10.7615 2.1836 11.059 2.1836 11.3308 2.27927L19.0098 4.97777Z" stroke="#3969FA" stroke-width="2.5"/>
<path d="M7.87695 12.9041L10.0843 15.1126L14.632 10.5649" stroke="#3969FA" stroke-width="2.5" stroke-linejoin="round"/>
</svg>
