<svg width="24" height="26" viewBox="0 0 24 26" fill="none" xmlns="http://www.w3.org/2000/svg">
<path fill-rule="evenodd" clip-rule="evenodd" d="M22.2737 7.89418L21.5475 6.63407C20.9332 5.56783 19.5717 5.2 18.504 5.8118V5.8118C17.9958 6.11119 17.3893 6.19614 16.8184 6.04789C16.2474 5.89965 15.7589 5.5304 15.4605 5.02156C15.2686 4.69813 15.1654 4.32975 15.1615 3.95367V3.95367C15.1789 3.35072 14.9514 2.76643 14.5309 2.33391C14.1105 1.90139 13.5329 1.65747 12.9296 1.65772H11.4666C10.8757 1.65771 10.3091 1.89319 9.89223 2.31206C9.47536 2.73093 9.2426 3.29865 9.24544 3.8896V3.8896C9.22792 5.10971 8.23379 6.08957 7.01355 6.08945C6.63747 6.08554 6.26909 5.98239 5.94567 5.79044V5.79044C4.87797 5.17864 3.51653 5.54647 2.90219 6.61271L2.12263 7.89418C1.50904 8.95909 1.87186 10.3197 2.93423 10.9377V10.9377C3.62478 11.3363 4.05018 12.0731 4.05018 12.8705C4.05018 13.6679 3.62478 14.4047 2.93423 14.8034V14.8034C1.87321 15.4172 1.50999 16.7745 2.12263 17.8362V17.8362L2.85947 19.107C3.14731 19.6264 3.63026 20.0096 4.20145 20.172C4.77264 20.3343 5.38497 20.2623 5.90295 19.972V19.972C6.41215 19.6749 7.01895 19.5935 7.58846 19.7459C8.15797 19.8983 8.643 20.2718 8.93575 20.7836C9.12771 21.107 9.23085 21.4754 9.23476 21.8515V21.8515C9.23476 23.0841 10.234 24.0833 11.4666 24.0833H12.9296C14.1581 24.0834 15.1557 23.0906 15.1615 21.8621V21.8621C15.1587 21.2693 15.3929 20.7 15.8121 20.2808C16.2313 19.8616 16.8006 19.6274 17.3934 19.6303C17.7686 19.6403 18.1355 19.743 18.4613 19.9293V19.9293C19.5262 20.5429 20.8868 20.18 21.5048 19.1177V19.1177L22.2737 17.8362C22.5713 17.3254 22.653 16.717 22.5006 16.1457C22.3483 15.5745 21.9745 15.0875 21.4621 14.7927V14.7927C20.9496 14.4979 20.5758 14.011 20.4235 13.4397C20.2712 12.8685 20.3529 12.2601 20.6505 11.7492C20.844 11.4114 21.1242 11.1312 21.4621 10.9377V10.9377C22.5181 10.32 22.88 8.96737 22.2737 7.90485V7.90485V7.89418Z" stroke="#3969FA" stroke-width="2.5" stroke-linecap="round" stroke-linejoin="round"/>
<ellipse cx="12.2044" cy="12.8704" rx="3.07552" ry="3.07551" stroke="#3969FA" stroke-width="2.5" stroke-linecap="round" stroke-linejoin="round"/>
</svg>
