<svg width="171" height="171" viewBox="0 0 171 171" fill="none" xmlns="http://www.w3.org/2000/svg">
<rect width="170.956" height="170.892" rx="10" fill="white"/>
<path fill-rule="evenodd" clip-rule="evenodd" d="M65.0178 160.125C65.0178 159.616 64.9918 159.333 64.94 159.281C64.8862 159.227 64.5618 159.203 63.9007 159.203H62.9393V157.449H63.8764C64.642 157.449 64.8324 157.431 64.9156 157.347C64.9972 157.266 65.0178 157.088 65.0178 156.47V155.695H66.7716V160.892H65.0178V160.125ZM90.9998 160.125C90.9998 159.616 90.9737 159.333 90.922 159.281C90.8682 159.227 90.5437 159.203 89.8827 159.203H88.9212V157.449H89.8583C90.6239 157.449 90.8144 157.431 90.8976 157.347C90.9791 157.266 90.9998 157.088 90.9998 156.47V155.695H92.7536V160.892H90.9998V160.125ZM94.0527 158.294V155.695H95.8064V156.462C95.8064 156.972 95.8325 157.254 95.8843 157.306C95.938 157.36 96.2625 157.384 96.9235 157.384H97.885V159.138H96.9479C96.1823 159.138 95.9918 159.157 95.9086 159.24C95.8271 159.321 95.8064 159.499 95.8064 160.117V160.892H94.0527V158.294ZM125.231 158.294V155.695H126.985V156.462C126.985 156.972 127.011 157.254 127.063 157.306C127.116 157.36 127.441 157.384 128.102 157.384H129.063V159.138H128.126C127.361 159.138 127.17 159.157 127.087 159.24C127.005 159.321 126.985 159.499 126.985 160.117V160.892H125.231V158.294ZM130.427 158.294V155.695H132.181V156.462C132.181 156.972 132.207 157.254 132.259 157.306C132.313 157.36 132.637 157.384 133.298 157.384H134.26V159.138H133.323C132.557 159.138 132.367 159.157 132.283 159.24C132.202 159.321 132.181 159.499 132.181 160.117V160.892H130.427V158.294ZM135.624 158.294V155.695H137.378V156.462C137.378 156.972 137.404 157.254 137.455 157.306C137.509 157.36 137.834 157.384 138.495 157.384H139.456V159.138H138.519C137.753 159.138 137.563 159.157 137.48 159.24C137.398 159.321 137.378 159.499 137.378 160.117V160.892H135.624V158.294ZM151.213 158.294V155.695H152.967V156.462C152.967 156.972 152.993 157.254 153.045 157.306C153.098 157.36 153.423 157.384 154.084 157.384H155.045V159.138H154.108C153.343 159.138 153.152 159.157 153.069 159.24C152.987 159.321 152.967 159.499 152.967 160.117V160.892H151.213V158.294ZM18.0554 160.783C17.0381 160.616 16.2435 160.408 15.7306 160.172C15.5773 160.102 15.3287 159.997 15.1785 159.939C15.0283 159.88 14.8466 159.784 14.7752 159.723C14.7038 159.663 14.5397 159.566 14.4105 159.507C14.2816 159.448 14.1392 159.356 14.0942 159.302C14.0492 159.247 13.9842 159.203 13.9501 159.203C13.7478 159.203 12.404 157.932 11.9243 157.287C10.8157 155.796 10.2422 154.307 10.0677 152.467C9.97767 151.518 9.97733 133.769 10.0673 132.799C10.1336 132.082 10.2531 131.455 10.4384 130.85C10.591 130.353 11.0031 129.384 11.177 129.115C11.2626 128.983 11.4195 128.734 11.5254 128.563C11.9591 127.864 13.0431 126.673 13.5735 126.314C14.872 125.433 15.8415 124.962 16.8862 124.705C17.6007 124.529 17.5774 124.533 18.4127 124.455C19.3941 124.362 37.1366 124.363 38.0991 124.455C39.384 124.579 40.2237 124.815 41.4717 125.406C42.5502 125.917 44.0069 127.148 44.6859 128.122C45.1927 128.849 45.7912 129.935 45.7912 130.128C45.7912 130.179 45.848 130.333 45.9177 130.471C46.0506 130.733 46.2475 131.512 46.3744 132.279C46.4296 132.614 46.4441 135.409 46.4285 142.867L46.4079 153L46.2668 153.617C46.1183 154.266 45.9708 154.753 45.8247 155.078C45.7766 155.186 45.6606 155.447 45.5669 155.661C45.4728 155.874 45.372 156.064 45.3422 156.083C45.3125 156.102 45.2275 156.252 45.1531 156.416C45.079 156.579 44.9728 156.751 44.9177 156.797C44.8622 156.843 44.8168 156.907 44.8168 156.938C44.8168 157.051 44.0259 157.969 43.5648 158.391C43.3066 158.627 42.8472 158.99 42.5434 159.197C41.9517 159.601 40.8996 160.177 40.7528 160.177C40.7037 160.177 40.5677 160.231 40.4507 160.297C40.2165 160.428 40.2507 160.419 39.1137 160.658L38.3146 160.827L28.2662 160.818C22.7396 160.813 18.1447 160.797 18.0554 160.783ZM67.4212 159.365V158.489H68.1878C68.6972 158.489 68.9801 158.462 69.0322 158.411C69.0856 158.357 69.11 158.032 69.11 157.371V156.41H70.8638V157.347C70.8638 158.113 70.8824 158.303 70.9659 158.386C71.0471 158.468 71.2251 158.489 71.8428 158.489H72.6175V160.242H67.4212V159.365ZM77.8139 159.365V158.489H78.5805C79.09 158.489 79.3729 158.462 79.4249 158.411C79.4784 158.357 79.5028 158.032 79.5028 157.371V156.41H81.2565V157.347C81.2565 158.113 81.2752 158.303 81.3587 158.386C81.4399 158.468 81.6179 158.489 82.2356 158.489H83.0103V160.242H77.8139V159.365ZM53.5858 159.24C53.5858 158.475 53.5672 158.284 53.4836 158.201C53.4024 158.119 53.2244 158.099 52.6067 158.099H51.832V156.345H57.0284V158.099H56.2618C55.7523 158.099 55.4694 158.125 55.4174 158.177C55.3639 158.23 55.3395 158.555 55.3395 159.216V160.177H53.5858V159.24ZM84.7641 159.24C84.7641 158.475 84.7455 158.284 84.6619 158.201C84.5807 158.119 84.4028 158.099 83.785 158.099H83.0103V156.345H88.2067V158.099H87.4401C86.9306 158.099 86.6478 158.125 86.5957 158.177C86.5423 158.23 86.5179 158.555 86.5179 159.216V160.177H84.7641V159.24ZM105.55 159.24C105.55 158.475 105.531 158.284 105.448 158.201C105.366 158.119 105.188 158.099 104.571 158.099H103.796V156.345H108.992V158.099H108.226C107.716 158.099 107.433 158.125 107.381 158.177C107.328 158.23 107.303 158.555 107.303 159.216V160.177H105.55V159.24ZM115.942 159.24C115.942 158.475 115.924 158.284 115.84 158.201C115.759 158.119 115.581 158.099 114.963 158.099H114.189V156.345H119.385V158.099H118.618C118.109 158.099 117.826 158.125 117.774 158.177C117.721 158.23 117.696 158.555 117.696 159.216V160.177H115.942V159.24ZM57.6779 153.097V150.499H59.4317V151.266C59.4317 151.775 59.4577 152.058 59.5095 152.11C59.5633 152.164 59.8877 152.188 60.5488 152.188H61.5103V153.942H60.5731C59.8076 153.942 59.6171 153.96 59.5339 154.044C59.4523 154.125 59.4317 154.303 59.4317 154.921V155.695H57.6779V153.097ZM73.2671 153.097V150.499H75.0209V151.266C75.0209 151.775 75.0469 152.058 75.0987 152.11C75.1525 152.164 75.4769 152.188 76.138 152.188H77.0994V153.942H76.1623C75.3967 153.942 75.2063 153.96 75.123 154.044C75.0415 154.125 75.0209 154.303 75.0209 154.921V155.695H73.2671V153.097ZM99.2491 150.499V145.303H101.003V146.069C101.003 146.579 101.029 146.862 101.081 146.914C101.134 146.967 101.459 146.992 102.12 146.992H103.081V148.745H102.144C101.379 148.745 101.188 148.764 101.105 148.847C101.018 148.934 101.003 149.176 101.003 150.491C101.003 151.603 101.024 152.054 101.081 152.11C101.134 152.164 101.459 152.188 102.12 152.188H103.081V153.942H102.144C101.379 153.942 101.188 153.96 101.105 154.044C101.023 154.125 101.003 154.303 101.003 154.921V155.695H99.2491V150.499ZM116.982 154.929C116.982 154.419 116.956 154.137 116.904 154.084C116.85 154.031 116.526 154.007 115.865 154.007H114.903V152.253H115.84C116.606 152.253 116.796 152.234 116.88 152.151C116.961 152.069 116.982 151.892 116.982 151.274V150.499H118.736V155.695H116.982V154.929ZM137.767 154.929C137.767 154.419 137.741 154.137 137.689 154.084C137.636 154.031 137.311 154.007 136.65 154.007H135.689V152.253H136.626C137.391 152.253 137.582 152.234 137.665 152.151C137.747 152.069 137.767 151.892 137.767 151.274V150.499H139.521V155.695H137.767V154.929ZM140.82 153.097V150.499H142.574V151.266C142.574 151.775 142.6 152.058 142.652 152.11C142.706 152.164 143.03 152.188 143.691 152.188H144.653V153.942H143.715C142.95 153.942 142.759 153.96 142.676 154.044C142.595 154.125 142.574 154.303 142.574 154.921V155.695H140.82V153.097ZM153.356 154.929C153.356 154.419 153.33 154.137 153.279 154.084C153.225 154.031 152.9 154.007 152.239 154.007H151.278V152.253H152.215C152.981 152.253 153.171 152.234 153.254 152.151C153.336 152.069 153.356 151.892 153.356 151.274V150.499H155.11V155.695H153.356V154.929ZM35.8531 155.528C36.121 155.472 36.4279 155.412 36.5351 155.394C36.6423 155.376 36.847 155.308 36.9898 155.243C37.1325 155.178 37.4248 155.046 37.6393 154.949C37.8538 154.852 38.2192 154.639 38.4513 154.475C38.933 154.135 39.8803 153.243 39.8803 153.128C39.8803 153.087 39.9408 152.997 40.0153 152.93C40.3779 152.602 40.9179 151.368 41.1093 150.429C41.2413 149.782 41.2443 149.601 41.2443 142.659C41.2443 135.726 41.22 134.755 41.0403 134.556C41.0095 134.522 40.9845 134.414 40.9845 134.317C40.9845 134.219 40.8559 133.863 40.699 133.524C39.7456 131.471 38.0609 130.141 35.9116 129.747C35.419 129.656 34.4741 129.647 27.9546 129.665C19.8924 129.688 20.3573 129.667 19.452 130.048C18.3988 130.492 17.8156 130.878 17.1406 131.575C16.3517 132.391 15.9623 132.995 15.6304 133.92C15.2512 134.978 15.2539 134.911 15.2776 142.932C15.2989 150.14 15.3019 150.281 15.4349 150.759C15.5993 151.35 16.006 152.241 16.3446 152.753C16.6589 153.228 17.3893 154.001 17.8582 154.355C18.572 154.894 19.4949 155.302 20.4462 155.5C20.9703 155.61 21.5261 155.618 28.1884 155.624C34.4775 155.629 35.4261 155.618 35.8531 155.528ZM103.796 154.169V153.292H104.562C105.072 153.292 105.355 153.266 105.407 153.214C105.46 153.161 105.485 152.836 105.485 152.175V151.214H107.239V152.151C107.239 152.916 107.257 153.107 107.341 153.19C107.422 153.271 107.6 153.292 108.218 153.292H108.992V155.046H103.796V154.169ZM119.385 154.169V153.292H120.152C120.661 153.292 120.944 153.266 120.996 153.214C121.05 153.161 121.074 152.836 121.074 152.175V151.214H122.828V152.151C122.828 152.916 122.846 153.107 122.93 153.19C123.011 153.271 123.189 153.292 123.807 153.292H124.581V155.046H119.385V154.169ZM53.5858 154.044C53.5858 153.278 53.5672 153.088 53.4836 153.005C53.4024 152.923 53.2244 152.902 52.6067 152.902H51.832V151.149H57.0284V152.902H56.2618C55.7523 152.902 55.4694 152.928 55.4174 152.98C55.3639 153.034 55.3395 153.358 55.3395 154.019V154.981H53.5858V154.044ZM84.7641 154.044C84.7641 153.278 84.7455 153.088 84.6619 153.005C84.5807 152.923 84.4028 152.902 83.785 152.902H83.0103V151.149H88.2067V152.902H87.4401C86.9306 152.902 86.6478 152.928 86.5957 152.98C86.5423 153.034 86.5179 153.358 86.5179 154.019V154.981H84.7641V154.044ZM110.746 154.044C110.746 153.278 110.727 153.088 110.644 153.005C110.563 152.923 110.385 152.902 109.767 152.902H108.992V151.149H114.189V152.902H113.422C112.913 152.902 112.63 152.928 112.578 152.98C112.524 153.034 112.5 153.358 112.5 154.019V154.981H110.746V154.044ZM157.514 154.044C157.514 153.278 157.495 153.088 157.411 153.005C157.33 152.923 157.152 152.902 156.535 152.902H155.76V151.149H160.956V152.902H160.19C159.68 152.902 159.397 152.928 159.345 152.98C159.292 153.034 159.267 153.358 159.267 154.019V154.981H157.514V154.044ZM120.035 147.901V145.303H121.788V146.069C121.788 146.579 121.814 146.862 121.866 146.914C121.92 146.967 122.244 146.992 122.905 146.992H123.867V148.745H122.93C122.164 148.745 121.974 148.764 121.891 148.847C121.809 148.929 121.788 149.107 121.788 149.724V150.499H120.035V147.901ZM146.017 147.901V145.303H147.77V146.069C147.77 146.579 147.796 146.862 147.848 146.914C147.902 146.967 148.226 146.992 148.887 146.992H149.849V148.745H148.912C148.146 148.745 147.956 148.764 147.873 148.847C147.791 148.929 147.77 149.107 147.77 149.724V150.499H146.017V147.901ZM151.213 147.901V145.303H152.967V146.069C152.967 146.579 152.993 146.862 153.045 146.914C153.098 146.967 153.423 146.992 154.084 146.992H155.045V148.745H154.108C153.343 148.745 153.152 148.764 153.069 148.847C152.987 148.929 152.967 149.107 152.967 149.724V150.499H151.213V147.901ZM23.7715 150.392C23.4832 150.349 22.7027 150.088 22.5972 150C22.5407 149.953 22.473 149.914 22.4463 149.914C22.3776 149.914 21.8847 149.563 21.6929 149.377C21.0873 148.79 20.7994 148.307 20.589 147.526C20.4567 147.036 20.454 146.915 20.4736 142.477L20.4936 137.93L20.6489 137.512C21.1391 136.188 22.1472 135.265 23.4514 134.945C23.8283 134.852 24.4088 134.843 28.4205 134.862L32.9626 134.885L33.3936 135.046C34.69 135.531 35.4921 136.392 35.9099 137.746C36.0533 138.211 36.0537 138.218 36.0307 142.78L36.0077 147.349L35.8477 147.771C35.5916 148.447 35.2404 148.967 34.7191 149.441C34.3104 149.812 33.8182 150.091 33.3198 150.235C33.1591 150.282 32.943 150.345 32.8391 150.377C32.6625 150.43 24.123 150.445 23.7715 150.392ZM57.0284 148.973V148.096H57.795C58.3045 148.096 58.5873 148.07 58.6394 148.018C58.6928 147.964 58.7172 147.64 58.7172 146.979V146.017H60.471V146.954C60.471 147.72 60.4896 147.91 60.5731 147.994C60.6543 148.075 60.8323 148.096 61.45 148.096H62.2248V149.85H57.0284V148.973ZM155.76 148.973V148.096H156.526C157.036 148.096 157.319 148.07 157.371 148.018C157.424 147.964 157.449 147.64 157.449 146.979V146.017H159.202V146.954C159.202 147.72 159.221 147.91 159.305 147.994C159.386 148.075 159.564 148.096 160.181 148.096H160.956V149.85H155.76V148.973ZM95.1569 148.847C95.1569 148.082 95.1383 147.891 95.0547 147.808C94.9735 147.727 94.7956 147.706 94.1778 147.706H93.4031V145.952H98.5995V147.706H97.8329C97.3234 147.706 97.0406 147.732 96.9885 147.784C96.935 147.838 96.9107 148.162 96.9107 148.823V149.785H95.1569V148.847ZM141.924 148.847C141.924 148.082 141.906 147.891 141.822 147.808C141.741 147.727 141.563 147.706 140.945 147.706H140.171V145.952H145.367V147.706H144.6C144.091 147.706 143.808 147.732 143.756 147.784C143.703 147.838 143.678 148.162 143.678 148.823V149.785H141.924V148.847ZM80.607 144.536C80.607 144.027 80.5809 143.744 80.5292 143.692C80.4754 143.638 80.151 143.614 79.4899 143.614H78.5284V141.86H79.4655C80.2311 141.86 80.4216 141.841 80.5048 141.758C80.5864 141.677 80.607 141.499 80.607 140.881V140.106H82.3608V145.303H80.607V144.536ZM96.1962 144.536C96.1962 144.027 96.1701 143.744 96.1184 143.692C96.0646 143.638 95.7401 143.614 95.0791 143.614H94.1176V141.86H95.0547C95.8203 141.86 96.0108 141.841 96.094 141.758C96.1755 141.677 96.1962 141.499 96.1962 140.881V140.106H97.95V145.303H96.1962V144.536ZM132.571 144.536C132.571 144.027 132.545 143.744 132.493 143.692C132.439 143.638 132.115 143.614 131.454 143.614H130.492V141.86H131.429C132.195 141.86 132.386 141.841 132.469 141.758C132.55 141.677 132.571 141.499 132.571 140.881V140.106H134.325V145.303H132.571V144.536ZM83.0103 143.776V142.899H83.7769C84.2864 142.899 84.5692 142.873 84.6213 142.822C84.6748 142.768 84.6992 142.443 84.6992 141.782V140.821H86.4529V141.758C86.4529 142.523 86.4715 142.714 86.5551 142.797C86.6363 142.879 86.8142 142.899 87.432 142.899H88.2067V144.653H83.0103V143.776ZM119.385 143.776V142.899H120.152C120.661 142.899 120.944 142.873 120.996 142.822C121.05 142.768 121.074 142.443 121.074 141.782V140.821H122.828V141.758C122.828 142.523 122.846 142.714 122.93 142.797C123.011 142.879 123.189 142.899 123.807 142.899H124.581V144.653H119.385V143.776ZM63.9785 143.651C63.9785 142.885 63.9599 142.695 63.8764 142.612C63.7952 142.53 63.6172 142.51 62.9995 142.51H62.2248V140.756H67.4212V142.51H66.6545C66.1451 142.51 65.8622 142.536 65.8101 142.587C65.7567 142.641 65.7323 142.966 65.7323 143.627V144.588H63.9785V143.651ZM105.55 143.651C105.55 142.885 105.531 142.695 105.448 142.612C105.366 142.53 105.188 142.51 104.571 142.51H103.796V140.756H108.992V142.51H108.226C107.716 142.51 107.433 142.536 107.381 142.587C107.328 142.641 107.303 142.966 107.303 143.627V144.588H105.55V143.651ZM152.317 143.651C152.317 142.885 152.299 142.695 152.215 142.612C152.134 142.53 151.956 142.51 151.338 142.51H150.563V140.756H155.76V142.51H154.993C154.484 142.51 154.201 142.536 154.149 142.587C154.095 142.641 154.071 142.966 154.071 143.627V144.588H152.317V143.651ZM52.4815 137.508V134.91H54.2353V135.676C54.2353 136.186 54.2614 136.469 54.3131 136.521C54.3669 136.574 54.6913 136.599 55.3524 136.599H56.3139V138.352H55.3768C54.6112 138.352 54.4207 138.371 54.3375 138.455C54.2559 138.536 54.2353 138.714 54.2353 139.332V140.106H52.4815V137.508ZM65.0178 139.34C65.0178 138.83 64.9918 138.547 64.94 138.495C64.8862 138.442 64.5618 138.417 63.9007 138.417H62.9393V136.664H63.8764C64.642 136.664 64.8324 136.645 64.9156 136.562C64.9972 136.48 65.0178 136.302 65.0178 135.685V134.91H66.7716V140.106H65.0178V139.34ZM111.785 139.34C111.785 138.83 111.759 138.547 111.708 138.495C111.654 138.442 111.329 138.417 110.668 138.417H109.707V136.664H110.644C111.409 136.664 111.6 136.645 111.683 136.562C111.765 136.48 111.785 136.302 111.785 135.685V134.91H113.539V140.106H111.785V139.34ZM114.838 134.91V129.713H116.592V130.48C116.592 130.99 116.618 131.272 116.67 131.325C116.724 131.378 117.048 131.402 117.709 131.402H118.671V133.156H117.733C116.968 133.156 116.777 133.175 116.694 133.258C116.607 133.345 116.592 133.587 116.592 134.901C116.592 136.014 116.614 136.464 116.67 136.521C116.724 136.574 117.048 136.599 117.709 136.599H118.671V138.352H117.733C116.968 138.352 116.777 138.371 116.694 138.455C116.613 138.536 116.592 138.714 116.592 139.332V140.106H114.838V134.91ZM135.624 137.508V134.91H137.378V135.676C137.378 136.186 137.404 136.469 137.455 136.521C137.509 136.574 137.834 136.599 138.495 136.599H139.456V138.352H138.519C137.753 138.352 137.563 138.371 137.48 138.455C137.398 138.536 137.378 138.714 137.378 139.332V140.106H135.624V137.508ZM77.8139 138.58V137.703H78.5805C79.09 137.703 79.3729 137.677 79.4249 137.625C79.4784 137.571 79.5028 137.247 79.5028 136.586V135.624H81.2565V136.562C81.2565 137.327 81.2752 137.518 81.3587 137.601C81.4399 137.682 81.6179 137.703 82.2356 137.703H83.0103V139.457H77.8139V138.58ZM124.581 138.58V137.703H125.348C125.858 137.703 126.14 137.677 126.192 137.625C126.246 137.571 126.27 137.247 126.27 136.586V135.624H128.024V136.562C128.024 137.327 128.043 137.518 128.126 137.601C128.207 137.682 128.385 137.703 129.003 137.703H129.778V139.457H124.581V138.58ZM140.171 138.58V137.703H140.937C141.447 137.703 141.73 137.677 141.782 137.625C141.835 137.571 141.859 137.247 141.859 136.586V135.624H143.613V136.562C143.613 137.327 143.632 137.518 143.715 137.601C143.797 137.682 143.975 137.703 144.592 137.703H145.367V139.457H140.171V138.58ZM58.7822 138.455C58.7822 137.689 58.7635 137.499 58.68 137.415C58.5988 137.334 58.4208 137.313 57.8031 137.313H57.0284V135.559H62.2248V137.313H61.4582C60.9487 137.313 60.6658 137.339 60.6137 137.391C60.5603 137.445 60.5359 137.769 60.5359 138.43V139.392H58.7822V138.455ZM74.3713 138.455C74.3713 137.689 74.3527 137.499 74.2692 137.415C74.188 137.334 74.01 137.313 73.3923 137.313H72.6175V135.559H77.8139V137.313H77.0473C76.5378 137.313 76.255 137.339 76.2029 137.391C76.1495 137.445 76.1251 137.769 76.1251 138.43V139.392H74.3713V138.455ZM121.139 138.455C121.139 137.689 121.12 137.499 121.037 137.415C120.955 137.334 120.778 137.313 120.16 137.313H119.385V135.559H124.581V137.313H123.815C123.305 137.313 123.023 137.339 122.97 137.391C122.917 137.445 122.893 137.769 122.893 138.43V139.392H121.139V138.455ZM131.532 138.455C131.532 137.689 131.513 137.499 131.429 137.415C131.348 137.334 131.17 137.313 130.553 137.313H129.778V135.559H134.974V137.313H134.208C133.698 137.313 133.415 137.339 133.363 137.391C133.31 137.445 133.285 137.769 133.285 138.43V139.392H131.532V138.455ZM157.514 138.455C157.514 137.689 157.495 137.499 157.411 137.415C157.33 137.334 157.152 137.313 156.535 137.313H155.76V135.559H160.956V137.313H160.19C159.68 137.313 159.397 137.339 159.345 137.391C159.292 137.445 159.267 137.769 159.267 138.43V139.392H157.514V138.455ZM96.1962 134.143C96.1962 133.634 96.1701 133.351 96.1184 133.299C96.0646 133.245 95.7401 133.221 95.0791 133.221H94.1176V131.467H95.0547C95.8203 131.467 96.0108 131.449 96.094 131.365C96.1755 131.284 96.1962 131.106 96.1962 130.488V129.713H97.95V134.91H96.1962V134.143ZM51.832 133.383V132.507H52.5986C53.1081 132.507 53.3909 132.481 53.443 132.429C53.4964 132.375 53.5208 132.051 53.5208 131.389V130.428H55.2746V131.365C55.2746 132.131 55.2932 132.321 55.3768 132.404C55.4579 132.486 55.6359 132.507 56.2536 132.507H57.0284V134.26H51.832V133.383ZM77.8139 133.383V132.507H78.5805C79.09 132.507 79.3729 132.481 79.4249 132.429C79.4784 132.375 79.5028 132.051 79.5028 131.389V130.428H81.2565V131.365C81.2565 132.131 81.2752 132.321 81.3587 132.404C81.4399 132.486 81.6179 132.507 82.2356 132.507H83.0103V134.26H77.8139V133.383ZM88.2067 133.383V132.507H88.9733C89.4828 132.507 89.7656 132.481 89.8177 132.429C89.8712 132.375 89.8955 132.051 89.8955 131.389V130.428H91.6493V131.365C91.6493 132.131 91.6679 132.321 91.7515 132.404C91.8327 132.486 92.0106 132.507 92.6284 132.507H93.4031V134.26H88.2067V133.383ZM155.76 133.383V132.507H156.526C157.036 132.507 157.319 132.481 157.371 132.429C157.424 132.375 157.449 132.051 157.449 131.389V130.428H159.202V131.365C159.202 132.131 159.221 132.321 159.305 132.404C159.386 132.486 159.564 132.507 160.181 132.507H160.956V134.26H155.76V133.383ZM58.7822 133.258C58.7822 132.493 58.7635 132.302 58.68 132.219C58.5988 132.137 58.4208 132.117 57.8031 132.117H57.0284V130.363H62.2248V132.117H61.4582C60.9487 132.117 60.6658 132.143 60.6137 132.195C60.5603 132.248 60.5359 132.573 60.5359 133.234V134.195H58.7822V133.258ZM69.1749 133.258C69.1749 132.493 69.1563 132.302 69.0728 132.219C68.9916 132.137 68.8136 132.117 68.1959 132.117H67.4212V130.363H72.6175V132.117H71.8509C71.3414 132.117 71.0586 132.143 71.0065 132.195C70.9531 132.248 70.9287 132.573 70.9287 133.234V134.195H69.1749V133.258ZM136.728 133.258C136.728 132.493 136.709 132.302 136.626 132.219C136.545 132.137 136.367 132.117 135.749 132.117H134.974V130.363H140.171V132.117H139.404C138.895 132.117 138.612 132.143 138.56 132.195C138.506 132.248 138.482 132.573 138.482 133.234V134.195H136.728V133.258ZM65.0178 128.947C65.0178 128.437 64.9918 128.155 64.94 128.102C64.8862 128.049 64.5618 128.025 63.9007 128.025H62.9393V126.271H63.8764C64.642 126.271 64.8324 126.252 64.9156 126.169C64.9972 126.088 65.0178 125.91 65.0178 125.292V124.517H66.7716V129.713H65.0178V128.947ZM73.2671 127.115V124.517H75.0209V125.284C75.0209 125.793 75.0469 126.076 75.0987 126.128C75.1525 126.182 75.4769 126.206 76.138 126.206H77.0994V127.96H76.1623C75.3967 127.96 75.2063 127.978 75.123 128.062C75.0415 128.143 75.0209 128.321 75.0209 128.939V129.713H73.2671V127.115ZM78.4635 127.115V124.517H80.2173V125.284C80.2173 125.793 80.2433 126.076 80.2951 126.128C80.3489 126.182 80.6733 126.206 81.3344 126.206H82.2958V127.96H81.3587C80.5931 127.96 80.4027 127.978 80.3194 128.062C80.2379 128.143 80.2173 128.321 80.2173 128.939V129.713H78.4635V127.115ZM85.8034 128.947C85.8034 128.437 85.7773 128.155 85.7256 128.102C85.6718 128.049 85.3474 128.025 84.6863 128.025H83.7248V126.271H84.6619C85.4275 126.271 85.618 126.252 85.7012 126.169C85.7828 126.088 85.8034 125.91 85.8034 125.292V124.517H87.5572V129.713H85.8034V128.947ZM90.9998 128.947C90.9998 128.437 90.9737 128.155 90.922 128.102C90.8682 128.049 90.5437 128.025 89.8827 128.025H88.9212V126.271H89.8583C90.6239 126.271 90.8144 126.252 90.8976 126.169C90.9791 126.088 90.9998 125.91 90.9998 125.292V124.517H92.7536V129.713H90.9998V128.947ZM104.445 127.115V124.517H106.199V125.284C106.199 125.793 106.225 126.076 106.277 126.128C106.331 126.182 106.655 126.206 107.316 126.206H108.278V127.96H107.341C106.575 127.96 106.385 127.978 106.301 128.062C106.22 128.143 106.199 128.321 106.199 128.939V129.713H104.445V127.115ZM116.982 128.947C116.982 128.437 116.956 128.155 116.904 128.102C116.85 128.049 116.526 128.025 115.865 128.025H114.903V126.271H115.84C116.606 126.271 116.796 126.252 116.88 126.169C116.967 126.082 116.982 125.84 116.982 124.526C116.982 123.413 116.96 122.963 116.904 122.906C116.85 122.853 116.526 122.828 115.865 122.828H114.903V121.074H115.84C116.606 121.074 116.796 121.056 116.88 120.972C116.961 120.891 116.982 120.713 116.982 120.095V119.321H118.736V129.713H116.982V128.947ZM137.767 128.947C137.767 128.437 137.741 128.155 137.689 128.102C137.636 128.049 137.311 128.025 136.65 128.025H135.689V126.271H136.626C137.391 126.271 137.582 126.252 137.665 126.169C137.747 126.088 137.767 125.91 137.767 125.292V124.517H139.521V129.713H137.767V128.947ZM140.82 127.115V124.517H142.574V125.284C142.574 125.793 142.6 126.076 142.652 126.128C142.706 126.182 143.03 126.206 143.691 126.206H144.653V127.96H143.715C142.95 127.96 142.759 127.978 142.676 128.062C142.595 128.143 142.574 128.321 142.574 128.939V129.713H140.82V127.115ZM67.4212 128.187V127.31H68.1878C68.6972 127.31 68.9801 127.284 69.0322 127.232C69.0856 127.179 69.11 126.854 69.11 126.193V125.232H70.8638V126.169C70.8638 126.934 70.8824 127.125 70.9659 127.208C71.0471 127.29 71.2251 127.31 71.8428 127.31H72.6175V129.064H67.4212V128.187ZM108.992 128.187V127.31H109.759C110.268 127.31 110.551 127.284 110.603 127.232C110.657 127.179 110.681 126.854 110.681 126.193V125.232H112.435V126.169C112.435 126.934 112.454 127.125 112.537 127.208C112.618 127.29 112.796 127.31 113.414 127.31H114.189V129.064H108.992V128.187ZM145.367 128.187V127.31H146.134C146.643 127.31 146.926 127.284 146.978 127.232C147.032 127.179 147.056 126.854 147.056 126.193V125.232H148.81V126.169C148.81 126.934 148.828 127.125 148.912 127.208C148.993 127.29 149.171 127.31 149.789 127.31H150.563V129.064H145.367V128.187ZM126.335 128.062C126.335 127.296 126.317 127.106 126.233 127.023C126.152 126.941 125.974 126.92 125.356 126.92H124.581V125.167H129.778V126.92H129.011C128.502 126.92 128.219 126.946 128.167 126.998C128.113 127.052 128.089 127.376 128.089 128.038V128.999H126.335V128.062ZM157.514 128.062C157.514 127.296 157.495 127.106 157.411 127.023C157.33 126.941 157.152 126.92 156.535 126.92H155.76V125.167H160.956V126.92H160.19C159.68 126.92 159.397 126.946 159.345 126.998C159.292 127.052 159.267 127.376 159.267 128.038V128.999H157.514V128.062ZM158.553 123.751C158.553 123.241 158.527 122.958 158.475 122.906C158.421 122.853 158.097 122.828 157.436 122.828H156.474V121.074H157.411C158.177 121.074 158.367 121.056 158.451 120.972C158.532 120.891 158.553 120.713 158.553 120.095V119.321H160.307V124.517H158.553V123.751ZM51.832 122.991V122.114H52.5986C53.1081 122.114 53.3909 122.088 53.443 122.036C53.4964 121.982 53.5208 121.658 53.5208 120.997V120.035H55.2746V120.972C55.2746 121.738 55.2932 121.928 55.3768 122.012C55.4579 122.093 55.6359 122.114 56.2536 122.114H57.0284V123.868H51.832V122.991ZM72.6175 122.991V122.114H73.3841C73.8936 122.114 74.1765 122.088 74.2286 122.036C74.282 121.982 74.3064 121.658 74.3064 120.997V120.035H76.0602V120.972C76.0602 121.738 76.0788 121.928 76.1623 122.012C76.2435 122.093 76.4215 122.114 77.0392 122.114H77.8139V123.868H72.6175V122.991ZM98.5995 122.991V122.114H99.3661C99.8756 122.114 100.158 122.088 100.211 122.036C100.264 121.982 100.288 121.658 100.288 120.997V120.035H102.042V120.972C102.042 121.738 102.061 121.928 102.144 122.012C102.225 122.093 102.403 122.114 103.021 122.114H103.796V123.868H98.5995V122.991ZM108.992 122.991V122.114H109.759C110.268 122.114 110.551 122.088 110.603 122.036C110.657 121.982 110.681 121.658 110.681 120.997V120.035H112.435V120.972C112.435 121.738 112.454 121.928 112.537 122.012C112.618 122.093 112.796 122.114 113.414 122.114H114.189V123.868H108.992V122.991ZM134.974 122.991V122.114H135.741C136.25 122.114 136.533 122.088 136.585 122.036C136.639 121.982 136.663 121.658 136.663 120.997V120.035H138.417V120.972C138.417 121.738 138.435 121.928 138.519 122.012C138.6 122.093 138.778 122.114 139.396 122.114H140.171V123.868H134.974V122.991ZM33.8395 118.554C33.8395 118.045 33.8134 117.762 33.7617 117.71C33.7079 117.656 33.3834 117.632 32.7224 117.632H31.7609V115.878H32.698C33.4636 115.878 33.6541 115.859 33.7373 115.776C33.8188 115.695 33.8395 115.517 33.8395 114.899V114.124H35.5932V119.321H33.8395V118.554ZM68.0707 116.723V114.124H69.8245V114.891C69.8245 115.4 69.8505 115.683 69.9023 115.735C69.9561 115.789 70.2805 115.813 70.9416 115.813H71.903V117.567H70.9659C70.2003 117.567 70.0099 117.586 69.9267 117.669C69.8451 117.75 69.8245 117.928 69.8245 118.546V119.321H68.0707V116.723ZM80.607 118.554C80.607 118.045 80.5809 117.762 80.5292 117.71C80.4754 117.656 80.151 117.632 79.4899 117.632H78.5284V115.878H79.4655C80.2311 115.878 80.4216 115.859 80.5048 115.776C80.5864 115.695 80.607 115.517 80.607 114.899V114.124H82.3608V119.321H80.607V118.554ZM90.9998 118.554C90.9998 118.045 90.9737 117.762 90.922 117.71C90.8682 117.656 90.5437 117.632 89.8827 117.632H88.9212V115.878H89.8583C90.6239 115.878 90.8144 115.859 90.8976 115.776C90.9791 115.695 90.9998 115.517 90.9998 114.899V114.124H92.7536V119.321H90.9998V118.554ZM106.589 118.554C106.589 118.045 106.563 117.762 106.511 117.71C106.457 117.656 106.133 117.632 105.472 117.632H104.51V115.878H105.448C106.213 115.878 106.404 115.859 106.487 115.776C106.568 115.695 106.589 115.517 106.589 114.899V114.124H108.343V119.321H106.589V118.554ZM120.035 116.723V114.124H121.788V114.891C121.788 115.4 121.814 115.683 121.866 115.735C121.92 115.789 122.244 115.813 122.905 115.813H123.867V117.567H122.93C122.164 117.567 121.974 117.586 121.891 117.669C121.809 117.75 121.788 117.928 121.788 118.546V119.321H120.035V116.723ZM125.231 116.723V114.124H126.985V114.891C126.985 115.4 127.011 115.683 127.063 115.735C127.116 115.789 127.441 115.813 128.102 115.813H129.063V117.567H128.126C127.361 117.567 127.17 117.586 127.087 117.669C127.005 117.75 126.985 117.928 126.985 118.546V119.321H125.231V116.723ZM135.624 116.723V114.124H137.378V114.891C137.378 115.4 137.404 115.683 137.455 115.735C137.509 115.789 137.834 115.813 138.495 115.813H139.456V117.567H138.519C137.753 117.567 137.563 117.586 137.48 117.669C137.398 117.75 137.378 117.928 137.378 118.546V119.321H135.624V116.723ZM140.82 116.723V114.124H142.574V114.891C142.574 115.4 142.6 115.683 142.652 115.735C142.706 115.789 143.03 115.813 143.691 115.813H144.653V117.567H143.715C142.95 117.567 142.759 117.586 142.676 117.669C142.595 117.75 142.574 117.928 142.574 118.546V119.321H140.82V116.723ZM156.409 116.723V114.124H158.163V114.891C158.163 115.4 158.189 115.683 158.241 115.735C158.295 115.789 158.619 115.813 159.28 115.813H160.242V117.567H159.305C158.539 117.567 158.349 117.586 158.265 117.669C158.184 117.75 158.163 117.928 158.163 118.546V119.321H156.409V116.723ZM10.2608 117.794V116.917H11.0274C11.5369 116.917 11.8198 116.891 11.8719 116.84C11.9253 116.786 11.9497 116.461 11.9497 115.8V114.839H13.7034V115.776C13.7034 116.542 13.7221 116.732 13.8056 116.815C13.8926 116.902 14.1344 116.917 15.4488 116.917C16.5611 116.917 17.0117 116.896 17.0682 116.84C17.1217 116.786 17.1461 116.461 17.1461 115.8V114.839H18.8998V115.776C18.8998 116.542 18.9184 116.732 19.002 116.815C19.0832 116.897 19.2611 116.917 19.8789 116.917H20.6536V118.671H10.2608V117.794ZM41.4392 117.794V116.917H42.2058C42.7153 116.917 42.9981 116.891 43.0502 116.84C43.1037 116.786 43.128 116.461 43.128 115.8V114.839H44.8818V115.776C44.8818 116.542 44.9004 116.732 44.984 116.815C45.0652 116.897 45.2431 116.917 45.8609 116.917H46.6356V118.671H41.4392V117.794ZM114.189 117.794V116.917H114.955C115.465 116.917 115.748 116.891 115.8 116.84C115.853 116.786 115.878 116.461 115.878 115.8V114.839H117.631V115.776C117.631 116.542 117.65 116.732 117.733 116.815C117.815 116.897 117.993 116.917 118.61 116.917H119.385V118.671H114.189V117.794ZM22.4074 117.669C22.4074 116.904 22.3888 116.713 22.3052 116.63C22.224 116.548 22.0461 116.528 21.4283 116.528H20.6536V114.774H31.0464V116.528H30.2798C29.7703 116.528 29.4875 116.554 29.4354 116.605C29.3819 116.659 29.3576 116.984 29.3576 117.645V118.606H27.6038V117.669C27.6038 116.904 27.5852 116.713 27.5016 116.63C27.4147 116.543 27.1728 116.528 25.8585 116.528C24.7461 116.528 24.2955 116.549 24.239 116.605C24.1855 116.659 24.1612 116.984 24.1612 117.645V118.606H22.4074V117.669ZM53.5858 117.669C53.5858 116.904 53.5672 116.713 53.4836 116.63C53.4024 116.548 53.2244 116.528 52.6067 116.528H51.832V114.774H57.0284V116.528H56.2618C55.7523 116.528 55.4694 116.554 55.4174 116.605C55.3639 116.659 55.3395 116.984 55.3395 117.645V118.606H53.5858V117.669ZM84.7641 117.669C84.7641 116.904 84.7455 116.713 84.6619 116.63C84.5807 116.548 84.4028 116.528 83.785 116.528H83.0103V114.774H88.2067V116.528H87.4401C86.9306 116.528 86.6478 116.554 86.5957 116.605C86.5423 116.659 86.5179 116.984 86.5179 117.645V118.606H84.7641V117.669ZM95.1569 117.669C95.1569 116.904 95.1383 116.713 95.0547 116.63C94.9735 116.548 94.7956 116.528 94.1778 116.528H93.4031V114.774H98.5995V116.528H97.8329C97.3234 116.528 97.0406 116.554 96.9885 116.605C96.935 116.659 96.9107 116.984 96.9107 117.645V118.606H95.1569V117.669ZM131.532 117.669C131.532 116.904 131.513 116.713 131.429 116.63C131.348 116.548 131.17 116.528 130.553 116.528H129.778V114.774H134.974V116.528H134.208C133.698 116.528 133.415 116.554 133.363 116.605C133.31 116.659 133.285 116.984 133.285 117.645V118.606H131.532V117.669ZM26.4996 111.526V108.928H28.2533V109.695C28.2533 110.204 28.2794 110.487 28.3312 110.539C28.3849 110.592 28.7094 110.617 29.3704 110.617H30.3319V112.371H29.3948C28.6292 112.371 28.4387 112.389 28.3555 112.473C28.274 112.554 28.2533 112.732 28.2533 113.35V114.124H26.4996V111.526ZM36.8923 108.928V103.732H38.6461V104.498C38.6461 105.008 38.6722 105.29 38.7239 105.343C38.7777 105.396 39.1022 105.42 39.7632 105.42H40.7247V107.174H39.7876C39.022 107.174 38.8315 107.193 38.7483 107.276C38.661 107.363 38.6461 107.605 38.6461 108.919C38.6461 110.032 38.6678 110.482 38.7239 110.539C38.7777 110.592 39.1022 110.617 39.7632 110.617H40.7247V112.371H39.7876C39.022 112.371 38.8315 112.389 38.7483 112.473C38.6668 112.554 38.6461 112.732 38.6461 113.35V114.124H36.8923V108.928ZM75.4106 113.358C75.4106 112.848 75.3846 112.565 75.3328 112.513C75.279 112.46 74.9546 112.435 74.2935 112.435H73.332V110.682H74.2692C75.0347 110.682 75.2252 110.663 75.3084 110.58C75.39 110.498 75.4106 110.32 75.4106 109.703V108.928H77.1644V114.124H75.4106V113.358ZM85.8034 113.358C85.8034 112.848 85.7773 112.565 85.7256 112.513C85.6718 112.46 85.3474 112.435 84.6863 112.435H83.7248V110.682H84.6619C85.4275 110.682 85.618 110.663 85.7012 110.58C85.7828 110.498 85.8034 110.32 85.8034 109.703V108.928H87.5572V114.124H85.8034V113.358ZM104.445 111.526V108.928H106.199V109.695C106.199 110.204 106.225 110.487 106.277 110.539C106.331 110.592 106.655 110.617 107.316 110.617H108.278V112.371H107.341C106.575 112.371 106.385 112.389 106.301 112.473C106.22 112.554 106.199 112.732 106.199 113.35V114.124H104.445V111.526ZM158.553 113.358C158.553 112.848 158.527 112.565 158.475 112.513C158.421 112.46 158.097 112.435 157.436 112.435H156.474V110.682H157.411C158.177 110.682 158.367 110.663 158.451 110.58C158.532 110.498 158.553 110.32 158.553 109.703V108.928H160.307V114.124H158.553V113.358ZM31.0464 112.598V111.721H31.813C32.3225 111.721 32.6053 111.695 32.6574 111.643C32.7109 111.589 32.7352 111.265 32.7352 110.604V109.642H34.489V110.58C34.489 111.345 34.5076 111.536 34.5912 111.619C34.6724 111.7 34.8503 111.721 35.4681 111.721H36.2428V113.475H31.0464V112.598ZM98.5995 112.598V111.721H99.3661C99.8756 111.721 100.158 111.695 100.211 111.643C100.264 111.589 100.288 111.265 100.288 110.604V109.642H102.042V110.58C102.042 111.345 102.061 111.536 102.144 111.619C102.225 111.7 102.403 111.721 103.021 111.721H103.796V113.475H98.5995V112.598ZM150.563 112.598V111.721H151.33C151.84 111.721 152.122 111.695 152.174 111.643C152.228 111.589 152.252 111.265 152.252 110.604V109.642H154.006V110.58C154.006 111.345 154.025 111.536 154.108 111.619C154.189 111.7 154.367 111.721 154.985 111.721H155.76V113.475H150.563V112.598ZM53.5858 112.473C53.5858 111.707 53.5672 111.517 53.4836 111.433C53.4024 111.352 53.2244 111.331 52.6067 111.331H51.832V109.577H57.0284V111.331H56.2618C55.7523 111.331 55.4694 111.357 55.4174 111.409C55.3639 111.463 55.3395 111.787 55.3395 112.448V113.41H53.5858V112.473ZM110.746 112.473C110.746 111.707 110.727 111.517 110.644 111.433C110.563 111.352 110.385 111.331 109.767 111.331H108.992V109.577H124.581V111.331H123.815C123.305 111.331 123.023 111.357 122.97 111.409C122.917 111.463 122.893 111.787 122.893 112.448V113.41H121.139V112.473C121.139 111.707 121.12 111.517 121.037 111.433C120.95 111.346 120.708 111.331 119.394 111.331C118.281 111.331 117.831 111.353 117.774 111.409C117.721 111.463 117.696 111.787 117.696 112.448V113.41H115.942V112.473C115.942 111.707 115.924 111.517 115.84 111.433C115.753 111.346 115.511 111.331 114.197 111.331C113.085 111.331 112.634 111.353 112.578 111.409C112.524 111.463 112.5 111.787 112.5 112.448V113.41H110.746V112.473ZM44.2323 108.161C44.2323 107.652 44.2062 107.369 44.1544 107.317C44.1006 107.263 43.7762 107.239 43.1152 107.239H42.1537V105.485H43.0908C43.8564 105.485 44.0469 105.467 44.1301 105.383C44.2116 105.302 44.2323 105.124 44.2323 104.506V103.732H45.986V108.928H44.2323V108.161ZM96.1962 108.161C96.1962 107.652 96.1701 107.369 96.1184 107.317C96.0646 107.263 95.7401 107.239 95.0791 107.239H94.1176V105.485H95.0547C95.8203 105.485 96.0108 105.467 96.094 105.383C96.1755 105.302 96.1962 105.124 96.1962 104.506V103.732H97.95V108.928H96.1962V108.161ZM135.624 103.732V98.5351H137.378V99.3017C137.378 99.8112 137.404 100.094 137.455 100.146C137.509 100.2 137.834 100.224 138.495 100.224H139.456V101.978H138.519C137.753 101.978 137.563 101.996 137.48 102.08C137.392 102.167 137.378 102.409 137.378 103.723C137.378 104.835 137.399 105.286 137.455 105.343C137.509 105.396 137.834 105.42 138.495 105.42H139.456V107.174H138.519C137.753 107.174 137.563 107.193 137.48 107.276C137.398 107.358 137.378 107.535 137.378 108.153V108.928H135.624V103.732ZM156.409 106.33V103.732H158.163V104.498C158.163 105.008 158.189 105.29 158.241 105.343C158.295 105.396 158.619 105.42 159.28 105.42H160.242V107.174H159.305C158.539 107.174 158.349 107.193 158.265 107.276C158.184 107.358 158.163 107.535 158.163 108.153V108.928H156.409V106.33ZM25.85 107.401V106.525H26.6166C27.1261 106.525 27.4089 106.499 27.461 106.447C27.5145 106.393 27.5388 106.069 27.5388 105.408V104.446H29.2926V105.383C29.2926 106.149 29.3112 106.339 29.3948 106.422C29.476 106.504 29.6539 106.525 30.2717 106.525H31.0464V108.278H25.85V107.401ZM98.5995 107.401V106.525H99.3661C99.8756 106.525 100.158 106.499 100.211 106.447C100.264 106.393 100.288 106.069 100.288 105.408V104.446H102.042V105.383C102.042 106.149 102.061 106.339 102.144 106.422C102.225 106.504 102.403 106.525 103.021 106.525H103.796V108.278H98.5995V107.401ZM145.367 107.401V106.525H146.134C146.643 106.525 146.926 106.499 146.978 106.447C147.032 106.393 147.056 106.069 147.056 105.408V104.446H148.81V105.383C148.81 106.149 148.828 106.339 148.912 106.422C148.993 106.504 149.171 106.525 149.789 106.525H150.563V108.278H145.367V107.401ZM115.942 107.276C115.942 106.511 115.924 106.32 115.84 106.237C115.759 106.156 115.581 106.135 114.963 106.135H114.189V104.381H119.385V106.135H118.618C118.109 106.135 117.826 106.161 117.774 106.213C117.721 106.266 117.696 106.591 117.696 107.252V108.213H115.942V107.276ZM21.3032 98.5351V93.3388H23.057V94.1054C23.057 94.6148 23.083 94.8977 23.1348 94.9498C23.1886 95.0032 23.513 95.0276 24.174 95.0276H25.1355V96.7814H24.1984C23.4328 96.7814 23.2423 96.8 23.1591 96.8835C23.0718 96.9705 23.057 97.2124 23.057 98.5267C23.057 99.639 23.0786 100.09 23.1348 100.146C23.1886 100.2 23.513 100.224 24.174 100.224H25.1355V101.978H24.1984C23.4328 101.978 23.2423 101.996 23.1591 102.08C23.0776 102.161 23.057 102.339 23.057 102.957V103.732H21.3032V98.5351ZM94.0527 101.166V98.6001H95.8064V99.3342C95.8064 99.8183 95.8328 100.095 95.8843 100.146C95.938 100.2 96.2625 100.224 96.9235 100.224H97.885V101.978H96.9479C96.1823 101.978 95.9918 101.996 95.9086 102.08C95.8271 102.161 95.8064 102.339 95.8064 102.957V103.732H94.0527V101.166ZM142.964 102.965C142.964 102.455 142.938 102.173 142.886 102.121C142.832 102.067 142.508 102.043 141.847 102.043H140.885V100.289H141.822C142.588 100.289 142.778 100.27 142.862 100.187C142.943 100.106 142.964 99.9276 142.964 99.3099V98.5351H144.717V103.732H142.964V102.965ZM10.2608 102.205V101.328H11.0274C11.5369 101.328 11.8198 101.302 11.8719 101.25C11.9253 101.197 11.9497 100.872 11.9497 100.211V99.2496H13.7034V100.187C13.7034 100.952 13.7221 101.143 13.8056 101.226C13.8868 101.308 14.0648 101.328 14.6825 101.328H15.4572V103.082H10.2608V102.205ZM57.0284 102.205V101.328H57.795C58.3045 101.328 58.5873 101.302 58.6394 101.25C58.6928 101.197 58.7172 100.872 58.7172 100.211V99.2496H60.471V100.187C60.471 100.952 60.4896 101.143 60.5731 101.226C60.6543 101.308 60.8323 101.328 61.45 101.328H62.2248V103.082H57.0284V102.205ZM108.992 102.205V101.328H109.759C110.268 101.328 110.551 101.302 110.603 101.25C110.657 101.197 110.681 100.872 110.681 100.211V99.2496H112.435V100.187C112.435 100.952 112.454 101.143 112.537 101.226C112.618 101.308 112.796 101.328 113.414 101.328H114.189V103.082H108.992V102.205ZM129.778 102.205V101.328H130.544C131.054 101.328 131.337 101.302 131.389 101.25C131.442 101.197 131.467 100.872 131.467 100.211V99.2496H133.22V100.187C133.22 100.952 133.239 101.143 133.323 101.226C133.404 101.308 133.582 101.328 134.2 101.328H134.974V103.082H129.778V102.205ZM155.76 102.205V101.328H156.526C157.036 101.328 157.319 101.302 157.371 101.25C157.424 101.197 157.449 100.872 157.449 100.211V99.2496H159.202V100.187C159.202 100.952 159.221 101.143 159.305 101.226C159.386 101.308 159.564 101.328 160.181 101.328H160.956V103.082H155.76V102.205ZM79.5677 102.08C79.5677 101.314 79.5491 101.124 79.4655 101.041C79.3844 100.959 79.2064 100.938 78.5887 100.938H77.8139V99.1847H88.2067V100.938H87.4401C86.9306 100.938 86.6478 100.965 86.5957 101.016C86.5423 101.07 86.5179 101.395 86.5179 102.056V103.017H84.7641V102.08C84.7641 101.314 84.7455 101.124 84.6619 101.041C84.575 100.953 84.3331 100.938 83.0188 100.938C81.9064 100.938 81.4558 100.96 81.3993 101.016C81.3459 101.07 81.3215 101.395 81.3215 102.056V103.017H79.5677V102.08ZM105.55 102.08C105.55 101.314 105.531 101.124 105.448 101.041C105.366 100.959 105.188 100.938 104.571 100.938H103.796V99.1847H108.992V100.938H108.226C107.716 100.938 107.433 100.965 107.381 101.016C107.328 101.07 107.303 101.395 107.303 102.056V103.017H105.55V102.08ZM126.335 102.08C126.335 101.314 126.317 101.124 126.233 101.041C126.152 100.959 125.974 100.938 125.356 100.938H124.581V99.1847H129.778V100.938H129.011C128.502 100.938 128.219 100.965 128.167 101.016C128.113 101.07 128.089 101.395 128.089 102.056V103.017H126.335V102.08ZM152.317 102.08C152.317 101.314 152.299 101.124 152.215 101.041C152.134 100.959 151.956 100.938 151.338 100.938H150.563V99.1847H155.76V100.938H154.993C154.484 100.938 154.201 100.965 154.149 101.016C154.095 101.07 154.071 101.395 154.071 102.056V103.017H152.317V102.08ZM26.4996 95.9369V93.3388H28.2533V94.1054C28.2533 94.6148 28.2794 94.8977 28.3312 94.9498C28.3849 95.0032 28.7094 95.0276 29.3704 95.0276H30.3319V96.7814H29.3948C28.6292 96.7814 28.4387 96.8 28.3555 96.8835C28.274 96.9647 28.2533 97.1427 28.2533 97.7604V98.5351H26.4996V95.9369ZM54.625 97.7685C54.625 97.259 54.599 96.9762 54.5472 96.9241C54.4934 96.8707 54.169 96.8463 53.5079 96.8463H52.5465V95.0925H53.4836C54.2492 95.0925 54.4396 95.0739 54.5229 94.9904C54.6044 94.9092 54.625 94.7312 54.625 94.1135V93.3388H56.3788V98.5351H54.625V97.7685ZM151.213 95.9369V93.3388H152.967V94.1054C152.967 94.6148 152.993 94.8977 153.045 94.9498C153.098 95.0032 153.423 95.0276 154.084 95.0276H155.045V96.7814H154.108C153.343 96.7814 153.152 96.8 153.069 96.8835C152.987 96.9647 152.967 97.1427 152.967 97.7604V98.5351H151.213V95.9369ZM15.4572 97.0087V96.1318H16.2238C16.7333 96.1318 17.0161 96.1058 17.0682 96.054C17.1217 96.0002 17.1461 95.6758 17.1461 95.0147V94.0533H18.8998V94.9904C18.8998 95.756 18.9184 95.9464 19.002 96.0296C19.0832 96.1112 19.2611 96.1318 19.8789 96.1318H20.6536V97.8856H15.4572V97.0087ZM46.6356 97.0087V96.1318H47.4022C47.9117 96.1318 48.1945 96.1058 48.2466 96.054C48.3 96.0002 48.3244 95.6758 48.3244 95.0147V94.0533H50.0782V94.9904C50.0782 95.756 50.0968 95.9464 50.1804 96.0296C50.2616 96.1112 50.4395 96.1318 51.0573 96.1318H51.832V97.8856H46.6356V97.0087ZM129.778 97.0087V96.1318H130.544C131.054 96.1318 131.337 96.1058 131.389 96.054C131.442 96.0002 131.467 95.6758 131.467 95.0147V94.0533H133.22V94.9904C133.22 95.756 133.239 95.9464 133.323 96.0296C133.404 96.1112 133.582 96.1318 134.2 96.1318H134.974V97.8856H129.778V97.0087ZM43.193 96.8835C43.193 96.1179 43.1744 95.9275 43.0908 95.8443C43.0096 95.7627 42.8317 95.7421 42.2139 95.7421H41.4392V93.9883H46.6356V95.7421H45.869C45.3595 95.7421 45.0767 95.7681 45.0246 95.8199C44.9711 95.8737 44.9468 96.1981 44.9468 96.8592V97.8206H43.193V96.8835ZM58.7822 96.8835C58.7822 96.1179 58.7635 95.9275 58.68 95.8443C58.5988 95.7627 58.4208 95.7421 57.8031 95.7421H57.0284V93.9883H62.2248V95.7421H61.4582C60.9487 95.7421 60.6658 95.7681 60.6137 95.8199C60.5603 95.8737 60.5359 96.1981 60.5359 96.8592V97.8206H58.7822V96.8835ZM115.942 96.8835C115.942 96.1179 115.924 95.9275 115.84 95.8443C115.759 95.7627 115.581 95.7421 114.963 95.7421H114.189V93.9883H119.385V95.7421H118.618C118.109 95.7421 117.826 95.7681 117.774 95.8199C117.721 95.8737 117.696 96.1981 117.696 96.8592V97.8206H115.942V96.8835ZM78.0897 89.6864L78.1062 85.5766L78.8857 85.5814C79.3143 85.5837 79.9338 85.5912 80.2619 85.5976L80.8587 85.6091L80.879 86.7715C80.8969 87.8068 80.9128 87.9492 81.0231 88.0706C81.1422 88.2022 81.2048 88.2073 82.6632 88.2073H84.1795V91.0653H82.6927C81.3712 91.0653 81.1909 91.0778 81.0715 91.179C80.9463 91.2846 80.9345 91.38 80.9044 92.5268L80.8719 93.761L79.4723 93.7785L78.0727 93.7958L78.0897 89.6864ZM18.2503 92.5721C18.2503 92.0627 18.2242 91.7798 18.1725 91.7277C18.1187 91.6743 17.7943 91.6499 17.1332 91.6499H16.1717V89.8961H17.1088C17.8744 89.8961 18.0649 89.8775 18.1481 89.794C18.2297 89.7128 18.2503 89.5348 18.2503 88.9171V88.1424H20.0041V93.3388H18.2503V92.5721ZM156.409 88.1424V82.946H158.163V83.7126C158.163 84.2221 158.189 84.5049 158.241 84.557C158.295 84.6104 158.619 84.6348 159.28 84.6348H160.242V86.3886H159.305C158.539 86.3886 158.349 86.4072 158.265 86.4907C158.178 86.5777 158.163 86.8196 158.163 88.1339C158.163 89.2463 158.185 89.6969 158.241 89.7534C158.295 89.8068 158.619 89.8312 159.28 89.8312H160.242V91.585H159.305C158.539 91.585 158.349 91.6036 158.265 91.6871C158.184 91.7683 158.163 91.9463 158.163 92.564V93.3388H156.409V88.1424ZM25.85 91.8123V90.9354H26.6166C27.1261 90.9354 27.4089 90.9094 27.461 90.8576C27.5145 90.8038 27.5388 90.4794 27.5388 89.8183V88.8569H29.2926V89.794C29.2926 90.5596 29.3112 90.75 29.3948 90.8333C29.476 90.9148 29.6539 90.9354 30.2717 90.9354H31.0464V92.6892H25.85V91.8123ZM62.2248 91.8123V90.9354H62.9914C63.5009 90.9354 63.7837 90.9094 63.8358 90.8576C63.8892 90.8038 63.9136 90.4794 63.9136 89.8183V88.8569H65.6674V89.794C65.6674 90.5596 65.686 90.75 65.7695 90.8333C65.8507 90.9148 66.0287 90.9354 66.6464 90.9354H67.4212V92.6892H62.2248V91.8123ZM150.563 91.8123V90.9354H151.33C151.84 90.9354 152.122 90.9094 152.174 90.8576C152.228 90.8038 152.252 90.4794 152.252 89.8183V88.8569H154.006V89.794C154.006 90.5596 154.025 90.75 154.108 90.8333C154.189 90.9148 154.367 90.9354 154.985 90.9354H155.76V92.6892H150.563V91.8123ZM32.8002 91.6871C32.8002 90.9215 32.7816 90.7311 32.698 90.6479C32.6168 90.5663 32.4389 90.5457 31.8211 90.5457H31.0464V88.7919H36.2428V90.5457H35.4762C34.9667 90.5457 34.6839 90.5717 34.6318 90.6235C34.5783 90.6773 34.554 91.0017 34.554 91.6628V92.6242H32.8002V91.6871ZM53.5858 91.6871C53.5858 90.9215 53.5672 90.7311 53.4836 90.6479C53.4024 90.5663 53.2244 90.5457 52.6067 90.5457H51.832V88.7919H57.0284V90.5457H56.2618C55.7523 90.5457 55.4694 90.5717 55.4174 90.6235C55.3639 90.6773 55.3395 91.0017 55.3395 91.6628V92.6242H53.5858V91.6871ZM69.1749 91.6871C69.1749 90.9215 69.1563 90.7311 69.0728 90.6479C68.9916 90.5663 68.8136 90.5457 68.1959 90.5457H67.4212V88.7919H72.4876V90.5457H71.786C71.3272 90.5457 71.0576 90.5728 71.0065 90.6235C70.9531 90.6773 70.9287 91.0017 70.9287 91.6628V92.6242H69.1749V91.6871ZM121.139 91.6871C121.139 90.9215 121.12 90.7311 121.037 90.6479C120.955 90.5663 120.778 90.5457 120.16 90.5457H119.385V88.7919H124.581V90.5457H123.815C123.305 90.5457 123.023 90.5717 122.97 90.6235C122.917 90.6773 122.893 91.0017 122.893 91.6628V92.6242H121.139V91.6871ZM86.9875 89.6526L87.0051 88.2398L88.5592 88.2266C89.9581 88.2148 90.1246 88.2019 90.2278 88.0967C90.3272 87.9955 90.3448 87.8223 90.3624 86.7949L90.3827 85.6098L93.0783 85.6091L93.0777 87.0219C93.077 88.008 93.0499 88.5351 92.988 88.7679C92.7732 89.5751 92.1649 90.3481 91.4663 90.702C90.8262 91.0264 90.5282 91.0653 88.679 91.0653H86.9702L86.9875 89.6526ZM42.0887 85.5442V82.946H43.8425V83.7126C43.8425 84.2221 43.8686 84.5049 43.9203 84.557C43.9741 84.6104 44.2986 84.6348 44.9596 84.6348H45.9211V86.3886H44.984C44.2184 86.3886 44.0279 86.4072 43.9447 86.4907C43.8632 86.5719 43.8425 86.7499 43.8425 87.3676V88.1424H42.0887V85.5442ZM70.2142 87.3758C70.2142 86.8663 70.1882 86.5834 70.1364 86.5313C70.0826 86.4779 69.7582 86.4535 69.0971 86.4535H68.1357V84.6997H69.0728C69.8384 84.6997 70.0288 84.6811 70.112 84.5976C70.1936 84.5164 70.2142 84.3384 70.2142 83.7207V82.946H71.968V88.1424H70.2142V87.3758ZM137.767 87.3758C137.767 86.8663 137.741 86.5834 137.689 86.5313C137.636 86.4779 137.311 86.4535 136.65 86.4535H135.689V84.6997H136.626C137.391 84.6997 137.582 84.6811 137.665 84.5976C137.752 84.5106 137.767 84.2687 137.767 82.9544C137.767 81.8421 137.746 81.3914 137.689 81.3349C137.636 81.2815 137.311 81.2571 136.65 81.2571H135.689V79.5034H136.626C137.391 79.5034 137.582 79.4847 137.665 79.4012C137.747 79.32 137.767 79.142 137.767 78.5243V77.7496H139.521V88.1424H137.767V87.3758ZM142.964 87.3758C142.964 86.8663 142.938 86.5834 142.886 86.5313C142.832 86.4779 142.508 86.4535 141.847 86.4535H140.885V84.6997H141.822C142.588 84.6997 142.778 84.6811 142.862 84.5976C142.943 84.5164 142.964 84.3384 142.964 83.7207V82.946H144.717V88.1424H142.964V87.3758ZM148.16 87.3758C148.16 86.8663 148.134 86.5834 148.082 86.5313C148.029 86.4779 147.704 86.4535 147.043 86.4535H146.082V84.6997H147.019C147.784 84.6997 147.975 84.6811 148.058 84.5976C148.139 84.5164 148.16 84.3384 148.16 83.7207V82.946H149.914V88.1424H148.16V87.3758ZM10.2608 86.6159V85.739H11.0274C11.5369 85.739 11.8198 85.713 11.8719 85.6612C11.9253 85.6074 11.9497 85.283 11.9497 84.6219V83.6605H13.7034V84.5976C13.7034 85.3632 13.7221 85.5536 13.8056 85.6369C13.8868 85.7184 14.0648 85.739 14.6825 85.739H15.4572V87.4928H10.2608V86.6159ZM25.85 86.6159V85.739H26.6166C27.1261 85.739 27.4089 85.713 27.461 85.6612C27.5145 85.6074 27.5388 85.283 27.5388 84.6219V83.6605H29.2926V84.5976C29.2926 85.3632 29.3112 85.5536 29.3948 85.6369C29.476 85.7184 29.6539 85.739 30.2717 85.739H31.0464V87.4928H25.85V86.6159ZM46.6356 86.6159V85.739H47.4022C47.9117 85.739 48.1945 85.713 48.2466 85.6612C48.3 85.6074 48.3244 85.283 48.3244 84.6219V83.6605H50.0782V84.5976C50.0782 85.3632 50.0968 85.5536 50.1804 85.6369C50.2673 85.7241 50.5092 85.739 51.8235 85.739C52.9359 85.739 53.3865 85.7174 53.443 85.6612C53.4964 85.6074 53.5208 85.283 53.5208 84.6219V83.6605H55.2746V84.5976C55.2746 85.3632 55.2932 85.5536 55.3768 85.6369C55.4579 85.7184 55.6359 85.739 56.2536 85.739H57.0284V87.4928H46.6356V86.6159ZM105.55 86.4907C105.55 85.7252 105.531 85.5347 105.448 85.4515C105.366 85.3699 105.188 85.3493 104.571 85.3493H103.796V83.5955H108.992V85.3493H108.226C107.716 85.3493 107.433 85.3753 107.381 85.4271C107.328 85.4809 107.303 85.8053 107.303 86.4664V87.4279H105.55V86.4907ZM121.139 86.4907C121.139 85.7252 121.12 85.5347 121.037 85.4515C120.955 85.3699 120.778 85.3493 120.16 85.3493H119.385V83.5955H129.778V85.3493H129.011C128.502 85.3493 128.219 85.3753 128.167 85.4271C128.113 85.4809 128.089 85.8053 128.089 86.4664V87.4279H126.335V86.4907C126.335 85.7252 126.317 85.5347 126.233 85.4515C126.146 85.3642 125.904 85.3493 124.59 85.3493C123.478 85.3493 123.027 85.3709 122.97 85.4271C122.917 85.4809 122.893 85.8053 122.893 86.4664V87.4279H121.139V86.4907ZM99.2491 80.3478V77.7496H101.003V78.5162C101.003 79.0257 101.029 79.3085 101.081 79.3606C101.134 79.414 101.459 79.4384 102.12 79.4384H103.081V81.1922H102.144C101.379 81.1922 101.188 81.2108 101.105 81.2943C101.023 81.3755 101.003 81.5535 101.003 82.1712V82.946H99.2491V80.3478ZM111.785 82.1794C111.785 81.6699 111.759 81.387 111.708 81.3349C111.654 81.2815 111.329 81.2571 110.668 81.2571H109.707V79.5034H110.644C111.409 79.5034 111.6 79.4847 111.683 79.4012C111.765 79.32 111.785 79.142 111.785 78.5243V77.7496H113.539V82.946H111.785V82.1794ZM127.375 82.1794C127.375 81.6699 127.348 81.387 127.297 81.3349C127.243 81.2815 126.918 81.2571 126.257 81.2571H125.296V79.5034H126.233C126.999 79.5034 127.189 79.4847 127.272 79.4012C127.354 79.32 127.375 79.142 127.375 78.5243V77.7496H129.128V82.946H127.375V82.1794ZM140.82 80.3478V77.7496H142.574V78.5162C142.574 79.0257 142.6 79.3085 142.652 79.3606C142.706 79.414 143.03 79.4384 143.691 79.4384H144.653V81.1922H143.715C142.95 81.1922 142.759 81.2108 142.676 81.2943C142.595 81.3755 142.574 81.5535 142.574 82.1712V82.946H140.82V80.3478ZM153.356 82.1794C153.356 81.6699 153.33 81.387 153.279 81.3349C153.225 81.2815 152.9 81.2571 152.239 81.2571H151.278V79.5034H152.215C152.981 79.5034 153.171 79.4847 153.254 79.4012C153.336 79.32 153.356 79.142 153.356 78.5243V77.7496H155.11V82.946H153.356V82.1794ZM158.553 82.1794C158.553 81.6699 158.527 81.387 158.475 81.3349C158.421 81.2815 158.097 81.2571 157.436 81.2571H156.474V79.5034H157.411C158.177 79.5034 158.367 79.4847 158.451 79.4012C158.532 79.32 158.553 79.142 158.553 78.5243V77.7496H160.307V82.946H158.553V82.1794ZM78.0738 81.3603C78.0738 80.114 78.0913 79.8477 78.1969 79.5091C78.5423 78.3991 79.5494 77.5361 80.7044 77.3605C80.9592 77.3216 81.8307 77.2993 82.6856 77.3094L84.212 77.3274V80.1204L82.7343 80.138C81.6757 80.1505 81.2565 80.1766 81.2565 80.23C81.2565 80.271 81.2393 80.2872 81.2187 80.2666C81.1977 80.2456 81.127 80.2744 81.0617 80.3305C80.9551 80.4215 80.9416 80.5531 80.9348 81.5694C80.9304 82.1949 80.9115 82.7311 80.8929 82.7613C80.8743 82.7914 80.2325 82.8161 79.4666 82.8161H78.0738V81.3603ZM90.3935 82.7728C90.3699 82.7491 90.3502 82.2101 90.3502 81.5758V80.4222L90.179 80.2876C90.017 80.16 89.9273 80.1529 88.4889 80.1529H86.9702L86.9875 78.7401L87.0051 77.3274L88.499 77.3091C89.3316 77.2993 90.1943 77.322 90.4477 77.3602C91.6378 77.5415 92.6003 78.3592 92.9478 79.4841C93.0621 79.8542 93.0783 80.088 93.0783 81.3613V82.8161H91.7576C91.0312 82.8161 90.4172 82.7964 90.3935 82.7728ZM31.0464 81.4195V80.5426H31.813C32.3225 80.5426 32.6053 80.5166 32.6574 80.4648C32.7109 80.411 32.7352 80.0866 32.7352 79.4255V78.4641H34.489V79.4012C34.489 80.1668 34.5076 80.3572 34.5912 80.4405C34.6724 80.522 34.8503 80.5426 35.4681 80.5426H36.2428V82.2964H31.0464V81.4195ZM119.385 81.4195V80.5426H120.152C120.661 80.5426 120.944 80.5166 120.996 80.4648C121.05 80.411 121.074 80.0866 121.074 79.4255V78.4641H122.828V79.4012C122.828 80.1668 122.846 80.3572 122.93 80.4405C123.011 80.522 123.189 80.5426 123.807 80.5426H124.581V82.2964H119.385V81.4195ZM58.7822 81.2943C58.7822 80.5288 58.7635 80.3383 58.68 80.2551C58.5988 80.1735 58.4208 80.1529 57.8031 80.1529H57.0284V78.3991H67.4212V80.1529H66.6545C66.1451 80.1529 65.8622 80.179 65.8101 80.2307C65.7567 80.2845 65.7323 80.6089 65.7323 81.27V82.2315H63.9785V81.2943C63.9785 80.5288 63.9599 80.3383 63.8764 80.2551C63.7894 80.1678 63.5475 80.1529 62.2332 80.1529C61.1209 80.1529 60.6702 80.1746 60.6137 80.2307C60.5603 80.2845 60.5359 80.6089 60.5359 81.27V82.2315H58.7822V81.2943ZM105.55 81.2943C105.55 80.5288 105.531 80.3383 105.448 80.2551C105.366 80.1735 105.188 80.1529 104.571 80.1529H103.796V78.3991H108.992V80.1529H108.226C107.716 80.1529 107.433 80.179 107.381 80.2307C107.328 80.2845 107.303 80.6089 107.303 81.27V82.2315H105.55V81.2943ZM147.121 81.2943C147.121 80.5288 147.102 80.3383 147.019 80.2551C146.937 80.1735 146.76 80.1529 146.142 80.1529H145.367V78.3991H150.563V80.1529H149.797C149.287 80.1529 149.005 80.179 148.952 80.2307C148.899 80.2845 148.875 80.6089 148.875 81.27V82.2315H147.121V81.2943ZM26.4996 75.1514V72.5532H28.2533V73.3198C28.2533 73.8293 28.2794 74.1121 28.3312 74.1642C28.3849 74.2177 28.7094 74.242 29.3704 74.242H30.3319V75.9958H29.3948C28.6292 75.9958 28.4387 76.0144 28.3555 76.098C28.274 76.1792 28.2533 76.3571 28.2533 76.9749V77.7496H26.4996V75.1514ZM114.838 75.1514V72.5532H116.592V73.3198C116.592 73.8293 116.618 74.1121 116.67 74.1642C116.724 74.2177 117.048 74.242 117.709 74.242H118.671V75.9958H117.733C116.968 75.9958 116.777 76.0144 116.694 76.098C116.613 76.1792 116.592 76.3571 116.592 76.9749V77.7496H114.838V75.1514ZM46.6356 76.2231V75.3462H47.4022C47.9117 75.3462 48.1945 75.3202 48.2466 75.2684C48.3 75.2146 48.3244 74.8902 48.3244 74.2291V73.2677H50.0782V74.2048C50.0782 74.9704 50.0968 75.1609 50.1804 75.2441C50.2673 75.3314 50.5092 75.3462 51.8235 75.3462C52.9359 75.3462 53.3865 75.3246 53.443 75.2684C53.4964 75.2146 53.5208 74.8902 53.5208 74.2291V73.2677H55.2746V74.2048C55.2746 74.9704 55.2932 75.1609 55.3768 75.2441C55.4579 75.3256 55.6359 75.3462 56.2536 75.3462H57.0284V77.1H46.6356V76.2231ZM103.796 76.2231V75.3462H104.562C105.072 75.3462 105.355 75.3202 105.407 75.2684C105.46 75.2146 105.485 74.8902 105.485 74.2291V73.2677H107.239V74.2048C107.239 74.9704 107.257 75.1609 107.341 75.2441C107.422 75.3256 107.6 75.3462 108.218 75.3462H108.992V77.1H103.796V76.2231ZM119.385 76.2231V75.3462H120.152C120.661 75.3462 120.944 75.3202 120.996 75.2684C121.05 75.2146 121.074 74.8902 121.074 74.2291V73.2677H122.828V74.2048C122.828 74.9704 122.846 75.1609 122.93 75.2441C123.011 75.3256 123.189 75.3462 123.807 75.3462H124.581V77.1H119.385V76.2231ZM22.4074 76.098C22.4074 75.3324 22.3888 75.1419 22.3052 75.0587C22.224 74.9771 22.0461 74.9565 21.4283 74.9565H20.6536V73.2027H25.85V74.9565H25.0834C24.5739 74.9565 24.2911 74.9826 24.239 75.0343C24.1855 75.0881 24.1612 75.4126 24.1612 76.0736V77.0351H22.4074V76.098ZM43.193 76.098C43.193 75.3324 43.1744 75.1419 43.0908 75.0587C43.0096 74.9771 42.8317 74.9565 42.2139 74.9565H41.4392V73.2027H46.6356V74.9565H45.869C45.3595 74.9565 45.0767 74.9826 45.0246 75.0343C44.9711 75.0881 44.9468 75.4126 44.9468 76.0736V77.0351H43.193V76.098ZM69.1749 76.098C69.1749 75.3324 69.1563 75.1419 69.0728 75.0587C68.9916 74.9771 68.8136 74.9565 68.1959 74.9565H67.4212V73.2027H72.4876V74.9565H71.786C71.3272 74.9565 71.0576 74.9836 71.0065 75.0343C70.9531 75.0881 70.9287 75.4126 70.9287 76.0736V77.0351H69.1749V76.098ZM110.746 76.098C110.746 75.3324 110.727 75.1419 110.644 75.0587C110.563 74.9771 110.385 74.9565 109.767 74.9565H108.992V73.2027H114.189V74.9565H113.422C112.913 74.9565 112.63 74.9826 112.578 75.0343C112.524 75.0881 112.5 75.4126 112.5 76.0736V77.0351H110.746V76.098ZM152.317 76.098C152.317 75.3324 152.299 75.1419 152.215 75.0587C152.134 74.9771 151.956 74.9565 151.338 74.9565H150.563V73.2027H155.76V74.9565H154.993C154.484 74.9565 154.201 74.9826 154.149 75.0343C154.095 75.0881 154.071 75.4126 154.071 76.0736V77.0351H152.317V76.098ZM57.6779 69.955V67.3568H59.4317V68.1234C59.4317 68.6329 59.4577 68.9157 59.5095 68.9678C59.5633 69.0213 59.8877 69.0456 60.5488 69.0456H61.5103V70.7994H60.5731C59.8076 70.7994 59.6171 70.818 59.5339 70.9016C59.4523 70.9828 59.4317 71.1607 59.4317 71.7785V72.5532H57.6779V69.955ZM99.2491 69.955V67.3568H101.003V68.1234C101.003 68.6329 101.029 68.9157 101.081 68.9678C101.134 69.0213 101.459 69.0456 102.12 69.0456H103.081V70.7994H102.144C101.379 70.7994 101.188 70.818 101.105 70.9016C101.023 70.9828 101.003 71.1607 101.003 71.7785V72.5532H99.2491V69.955ZM116.982 71.7866C116.982 71.2771 116.956 70.9943 116.904 70.9422C116.85 70.8887 116.526 70.8644 115.865 70.8644H114.903V69.1106H115.84C116.606 69.1106 116.796 69.092 116.88 69.0084C116.961 68.9272 116.982 68.7493 116.982 68.1315V67.3568H118.736V72.5532H116.982V71.7866ZM137.767 71.7866C137.767 71.2771 137.741 70.9943 137.689 70.9422C137.636 70.8887 137.311 70.8644 136.65 70.8644H135.689V69.1106H136.626C137.391 69.1106 137.582 69.092 137.665 69.0084C137.747 68.9272 137.767 68.7493 137.767 68.1315V67.3568H139.521V72.5532H137.767V71.7866ZM142.964 71.7866C142.964 71.2771 142.938 70.9943 142.886 70.9422C142.832 70.8887 142.508 70.8644 141.847 70.8644H140.885V69.1106H141.822C142.588 69.1106 142.778 69.092 142.862 69.0084C142.943 68.9272 142.964 68.7493 142.964 68.1315V67.3568H144.717V72.5532H142.964V71.7866ZM153.356 71.7866C153.356 71.2771 153.33 70.9943 153.279 70.9422C153.225 70.8887 152.9 70.8644 152.239 70.8644H151.278V69.1106H152.215C152.981 69.1106 153.171 69.092 153.254 69.0084C153.336 68.9272 153.356 68.7493 153.356 68.1315V67.3568H155.11V72.5532H153.356V71.7866ZM158.553 71.7866C158.553 71.2771 158.527 70.9943 158.475 70.9422C158.421 70.8887 158.097 70.8644 157.436 70.8644H156.474V69.1106H157.411C158.177 69.1106 158.367 69.092 158.451 69.0084C158.532 68.9272 158.553 68.7493 158.553 68.1315V67.3568H160.307V72.5532H158.553V71.7866ZM25.85 71.0267V70.1498H26.6166C27.1261 70.1498 27.4089 70.1238 27.461 70.072C27.5145 70.0182 27.5388 69.6938 27.5388 69.0328V68.0713H29.2926V69.0084C29.2926 69.774 29.3112 69.9645 29.3948 70.0477C29.476 70.1292 29.6539 70.1498 30.2717 70.1498H31.0464V71.9036H25.85V71.0267ZM36.2428 71.0267V70.1498H37.0094C37.5189 70.1498 37.8017 70.1238 37.8538 70.072C37.9073 70.0182 37.9316 69.6938 37.9316 69.0328V68.0713H39.6854V69.0084C39.6854 69.774 39.704 69.9645 39.7876 70.0477C39.8688 70.1292 40.0467 70.1498 40.6645 70.1498H41.4392V71.9036H36.2428V71.0267ZM51.832 71.0267V70.1498H52.5986C53.1081 70.1498 53.3909 70.1238 53.443 70.072C53.4964 70.0182 53.5208 69.6938 53.5208 69.0328V68.0713H55.2746V69.0084C55.2746 69.774 55.2932 69.9645 55.3768 70.0477C55.4579 70.1292 55.6359 70.1498 56.2536 70.1498H57.0284V71.9036H51.832V71.0267ZM72.6175 71.0267V70.1498H73.3841C73.8936 70.1498 74.1765 70.1238 74.2286 70.072C74.282 70.0182 74.3064 69.6938 74.3064 69.0328V68.0713H76.0602V69.0084C76.0602 69.774 76.0788 69.9645 76.1623 70.0477C76.2435 70.1292 76.4215 70.1498 77.0392 70.1498H77.8139V71.9036H72.6175V71.0267ZM83.0103 71.0267V70.1498H83.7769C84.2864 70.1498 84.5692 70.1238 84.6213 70.072C84.6748 70.0182 84.6992 69.6938 84.6992 69.0328V68.0713H86.4529V69.0084C86.4529 69.774 86.4715 69.9645 86.5551 70.0477C86.6363 70.1292 86.8142 70.1498 87.432 70.1498H88.2067V71.9036H83.0103V71.0267ZM108.992 71.0267V70.1498H109.759C110.268 70.1498 110.551 70.1238 110.603 70.072C110.657 70.0182 110.681 69.6938 110.681 69.0328V68.0713H112.435V69.0084C112.435 69.774 112.454 69.9645 112.537 70.0477C112.618 70.1292 112.796 70.1498 113.414 70.1498H114.189V71.9036H108.992V71.0267ZM124.581 71.0267V70.1498H125.348C125.858 70.1498 126.14 70.1238 126.192 70.072C126.246 70.0182 126.27 69.6938 126.27 69.0328V68.0713H128.024V69.0084C128.024 69.774 128.043 69.9645 128.126 70.0477C128.207 70.1292 128.385 70.1498 129.003 70.1498H129.778V71.9036H124.581V71.0267ZM48.3894 70.9016C48.3894 70.136 48.3708 69.9455 48.2872 69.8623C48.206 69.7808 48.0281 69.7601 47.4103 69.7601H46.6356V68.0063H51.832V69.7601H51.0654C50.5559 69.7601 50.2731 69.7862 50.221 69.8379C50.1675 69.8917 50.1431 70.2162 50.1431 70.8772V71.8387H48.3894V70.9016ZM105.55 70.9016C105.55 70.136 105.531 69.9455 105.448 69.8623C105.366 69.7808 105.188 69.7601 104.571 69.7601H103.796V68.0063H108.992V69.7601H108.226C107.716 69.7601 107.433 69.7862 107.381 69.8379C107.328 69.8917 107.303 70.2162 107.303 70.8772V71.8387H105.55V70.9016ZM10.9104 64.7586V62.1604H12.6642V62.927C12.6642 63.4365 12.6902 63.7193 12.742 63.7714C12.7958 63.8249 13.1202 63.8492 13.7813 63.8492H14.7427V65.603H13.8056C13.04 65.603 12.8496 65.6216 12.7663 65.7052C12.6848 65.7864 12.6642 65.9643 12.6642 66.5821V67.3568H10.9104V64.7586ZM21.3032 64.7586V62.1604H23.057V62.927C23.057 63.4365 23.083 63.7193 23.1348 63.7714C23.1886 63.8249 23.513 63.8492 24.174 63.8492H25.1355V65.603H24.1984C23.4328 65.603 23.2423 65.6216 23.1591 65.7052C23.0776 65.7864 23.057 65.9643 23.057 66.5821V67.3568H21.3032V64.7586ZM62.8743 64.7586V62.1604H64.6281V62.927C64.6281 63.4365 64.6541 63.7193 64.7059 63.7714C64.7597 63.8249 65.0841 63.8492 65.7452 63.8492H66.7066V65.603H65.7695C65.0039 65.603 64.8135 65.6216 64.7303 65.7052C64.6487 65.7864 64.6281 65.9643 64.6281 66.5821V67.3568H62.8743V64.7586ZM132.571 66.5902C132.571 66.0807 132.545 65.7979 132.493 65.7458C132.439 65.6923 132.115 65.668 131.454 65.668H130.492V63.9142H131.429C132.195 63.9142 132.386 63.8956 132.469 63.812C132.556 63.7251 132.571 63.4832 132.571 62.1689C132.571 61.0565 132.549 60.6059 132.493 60.5494C132.439 60.4959 132.115 60.4716 131.454 60.4716H130.492V58.7178H131.429C132.195 58.7178 132.386 58.6992 132.469 58.6156C132.55 58.5344 132.571 58.3565 132.571 57.7387V56.964H134.325V67.3568H132.571V66.5902ZM156.409 64.7586V62.1604H158.163V62.927C158.163 63.4365 158.189 63.7193 158.241 63.7714C158.295 63.8249 158.619 63.8492 159.28 63.8492H160.242V65.603H159.305C158.539 65.603 158.349 65.6216 158.265 65.7052C158.184 65.7864 158.163 65.9643 158.163 66.5821V67.3568H156.409V64.7586ZM25.85 65.8303V64.9535H26.6166C27.1261 64.9535 27.4089 64.9274 27.461 64.8756C27.5145 64.8219 27.5388 64.4974 27.5388 63.8364V62.8749H29.2926V63.812C29.2926 64.5776 29.3112 64.7681 29.3948 64.8513C29.476 64.9328 29.6539 64.9535 30.2717 64.9535H31.0464V66.7072H25.85V65.8303ZM41.4392 65.8303V64.9535H42.2058C42.7153 64.9535 42.9981 64.9274 43.0502 64.8756C43.1037 64.8219 43.128 64.4974 43.128 63.8364V62.8749H44.8818V63.812C44.8818 64.5776 44.9004 64.7681 44.984 64.8513C45.0652 64.9328 45.2431 64.9535 45.8609 64.9535H46.6356V66.7072H41.4392V65.8303ZM93.4031 65.8303V64.9535H94.1697C94.6792 64.9535 94.962 64.9274 95.0141 64.8756C95.0676 64.8219 95.0919 64.4974 95.0919 63.8364V62.8749H96.8457V63.812C96.8457 64.5776 96.8643 64.7681 96.9479 64.8513C97.0291 64.9328 97.207 64.9535 97.8248 64.9535H98.5995V66.7072H93.4031V65.8303ZM103.796 65.8303V64.9535H104.562C105.072 64.9535 105.355 64.9274 105.407 64.8756C105.46 64.8219 105.485 64.4974 105.485 63.8364V62.8749H107.239V63.812C107.239 64.5776 107.257 64.7681 107.341 64.8513C107.422 64.9328 107.6 64.9535 108.218 64.9535H108.992V66.7072H103.796V65.8303ZM119.385 65.8303V64.9535H120.152C120.661 64.9535 120.944 64.9274 120.996 64.8756C121.05 64.8219 121.074 64.4974 121.074 63.8364V62.8749H122.828V63.812C122.828 64.5776 122.846 64.7681 122.93 64.8513C123.017 64.9386 123.259 64.9535 124.573 64.9535C125.685 64.9535 126.136 64.9318 126.192 64.8756C126.246 64.8219 126.27 64.4974 126.27 63.8364V62.8749H128.024V63.812C128.024 64.5776 128.043 64.7681 128.126 64.8513C128.207 64.9328 128.385 64.9535 129.003 64.9535H129.778V66.7072H119.385V65.8303ZM48.3894 65.7052C48.3894 64.9396 48.3708 64.7491 48.2872 64.6659C48.206 64.5844 48.0281 64.5637 47.4103 64.5637H46.6356V62.8099H51.832V64.5637H51.0654C50.5559 64.5637 50.2731 64.5898 50.221 64.6415C50.1675 64.6953 50.1431 65.0198 50.1431 65.6808V66.6423H48.3894V65.7052ZM58.7822 65.7052C58.7822 64.9396 58.7635 64.7491 58.68 64.6659C58.5988 64.5844 58.4208 64.5637 57.8031 64.5637H57.0284V62.8099H62.2248V64.5637H61.4582C60.9487 64.5637 60.6658 64.5898 60.6137 64.6415C60.5603 64.6953 60.5359 65.0198 60.5359 65.6808V66.6423H58.7822V65.7052ZM136.728 65.7052C136.728 64.9396 136.709 64.7491 136.626 64.6659C136.545 64.5844 136.367 64.5637 135.749 64.5637H134.974V62.8099H140.171V64.5637H139.404C138.895 64.5637 138.612 64.5898 138.56 64.6415C138.506 64.6953 138.482 65.0198 138.482 65.6808V66.6423H136.728V65.7052ZM18.2503 61.3938C18.2503 60.8843 18.2242 60.6015 18.1725 60.5494C18.1187 60.4959 17.7943 60.4716 17.1332 60.4716H16.1717V58.7178H17.1088C17.8744 58.7178 18.0649 58.6992 18.1481 58.6156C18.2297 58.5344 18.2503 58.3565 18.2503 57.7387V56.964H20.0041V62.1604H18.2503V61.3938ZM33.8395 61.3938C33.8395 60.8843 33.8134 60.6015 33.7617 60.5494C33.7079 60.4959 33.3834 60.4716 32.7224 60.4716H31.7609V58.7178H32.698C33.4636 58.7178 33.6541 58.6992 33.7373 58.6156C33.8188 58.5344 33.8395 58.3565 33.8395 57.7387V56.964H35.5932V62.1604H33.8395V61.3938ZM36.8923 59.5622V56.964H38.6461V57.7306C38.6461 58.2401 38.6722 58.5229 38.7239 58.575C38.7777 58.6285 39.1022 58.6528 39.7632 58.6528H40.7247V60.4066H39.7876C39.022 60.4066 38.8315 60.4252 38.7483 60.5088C38.6668 60.59 38.6461 60.7679 38.6461 61.3857V62.1604H36.8923V59.5622ZM49.4286 61.3938C49.4286 60.8843 49.4026 60.6015 49.3508 60.5494C49.297 60.4959 48.9726 60.4716 48.3116 60.4716H47.3501V58.7178H48.2872C49.0528 58.7178 49.2433 58.6992 49.3265 58.6156C49.408 58.5344 49.4286 58.3565 49.4286 57.7387V56.964H51.1824V62.1604H49.4286V61.3938ZM80.607 61.3938C80.607 60.8843 80.5809 60.6015 80.5292 60.5494C80.4754 60.4959 80.151 60.4716 79.4899 60.4716H78.5284V58.7178H79.4655C80.2311 58.7178 80.4216 58.6992 80.5048 58.6156C80.5921 58.5287 80.607 58.2868 80.607 56.9725C80.607 55.8601 80.5853 55.4095 80.5292 55.353C80.4754 55.2995 80.151 55.2752 79.4899 55.2752H78.5284V53.5214H79.4655C80.2311 53.5214 80.4216 53.5028 80.5048 53.4192C80.5864 53.338 80.607 53.1601 80.607 52.5423V51.7676H82.3608V62.1604H80.607V61.3938ZM122.178 61.3938C122.178 60.8843 122.152 60.6015 122.1 60.5494C122.047 60.4959 121.722 60.4716 121.061 60.4716H120.1V58.7178H121.037C121.802 58.7178 121.993 58.6992 122.076 58.6156C122.158 58.5344 122.178 58.3565 122.178 57.7387V56.964H123.932V62.1604H122.178V61.3938ZM153.356 61.3938C153.356 60.8843 153.33 60.6015 153.279 60.5494C153.225 60.4959 152.9 60.4716 152.239 60.4716H151.278V58.7178H152.215C152.981 58.7178 153.171 58.6992 153.254 58.6156C153.336 58.5344 153.356 58.3565 153.356 57.7387V56.964H155.11V62.1604H153.356V61.3938ZM158.553 61.3938C158.553 60.8843 158.527 60.6015 158.475 60.5494C158.421 60.4959 158.097 60.4716 157.436 60.4716H156.474V58.7178H157.411C158.177 58.7178 158.367 58.6992 158.451 58.6156C158.532 58.5344 158.553 58.3565 158.553 57.7387V56.964H160.307V62.1604H158.553V61.3938ZM83.0103 60.634V59.7571H83.7769C84.2864 59.7571 84.5692 59.731 84.6213 59.6793C84.6748 59.6255 84.6992 59.301 84.6992 58.64V57.6785H86.4529V58.6156C86.4529 59.3812 86.4715 59.5717 86.5551 59.6549C86.6363 59.7364 86.8142 59.7571 87.432 59.7571H88.2067V61.5108H83.0103V60.634ZM114.189 60.634V59.7571H114.955C115.465 59.7571 115.748 59.731 115.8 59.6793C115.853 59.6255 115.878 59.301 115.878 58.64V57.6785H117.631V58.6156C117.631 59.3812 117.65 59.5717 117.733 59.6549C117.815 59.7364 117.993 59.7571 118.61 59.7571H119.385V61.5108H114.189V60.634ZM124.581 60.634V59.7571H125.348C125.858 59.7571 126.14 59.731 126.192 59.6793C126.246 59.6255 126.27 59.301 126.27 58.64V57.6785H128.024V58.6156C128.024 59.3812 128.043 59.5717 128.126 59.6549C128.207 59.7364 128.385 59.7571 129.003 59.7571H129.778V61.5108H124.581V60.634ZM140.171 60.634V59.7571H140.937C141.447 59.7571 141.73 59.731 141.782 59.6793C141.835 59.6255 141.859 59.301 141.859 58.64V57.6785H143.613V58.6156C143.613 59.3812 143.632 59.5717 143.715 59.6549C143.797 59.7364 143.975 59.7571 144.592 59.7571H145.367V61.5108H140.171V60.634ZM12.0146 60.5088C12.0146 59.7432 11.996 59.5527 11.9124 59.4695C11.8313 59.388 11.6533 59.3673 11.0356 59.3673H10.2608V57.6136H15.4572V59.3673H14.6906C14.1811 59.3673 13.8983 59.3934 13.8462 59.4451C13.7928 59.4989 13.7684 59.8234 13.7684 60.4844V61.4459H12.0146V60.5088ZM95.1569 60.5088C95.1569 59.7432 95.1383 59.5527 95.0547 59.4695C94.9735 59.388 94.7956 59.3673 94.1778 59.3673H93.4031V57.6136H98.5995V59.3673H97.8329C97.3234 59.3673 97.0406 59.3934 96.9885 59.4451C96.935 59.4989 96.9107 59.8234 96.9107 60.4844V61.4459H95.1569V60.5088ZM136.728 60.5088C136.728 59.7432 136.709 59.5527 136.626 59.4695C136.545 59.388 136.367 59.3673 135.749 59.3673H134.974V57.6136H140.171V59.3673H139.404C138.895 59.3673 138.612 59.3934 138.56 59.4451C138.506 59.4989 138.482 59.8234 138.482 60.4844V61.4459H136.728V60.5088ZM147.121 60.5088C147.121 59.7432 147.102 59.5527 147.019 59.4695C146.937 59.388 146.76 59.3673 146.142 59.3673H145.367V57.6136H150.563V59.3673H149.797C149.287 59.3673 149.005 59.3934 148.952 59.4451C148.899 59.4989 148.875 59.8234 148.875 60.4844V61.4459H147.121V60.5088ZM13.0539 56.1974C13.0539 55.6879 13.0278 55.4051 12.9761 55.353C12.9223 55.2995 12.5979 55.2752 11.9368 55.2752H10.9753V53.5214H11.9124C12.678 53.5214 12.8685 53.5028 12.9517 53.4192C13.0333 53.338 13.0539 53.1601 13.0539 52.5423V51.7676H14.8077V56.964H13.0539V56.1974ZM42.0887 54.3658V51.7676H43.8425V52.5342C43.8425 53.0437 43.8686 53.3265 43.9203 53.3786C43.9741 53.4321 44.2986 53.4564 44.9596 53.4564H45.9211V55.2102H44.984C44.2184 55.2102 44.0279 55.2288 43.9447 55.3124C43.8632 55.3936 43.8425 55.5715 43.8425 56.1893V56.964H42.0887V54.3658ZM62.8743 54.3658V51.7676H64.6281V52.5342C64.6281 53.0437 64.6541 53.3265 64.7059 53.3786C64.7597 53.4321 65.0841 53.4564 65.7452 53.4564H66.7066V55.2102H65.7695C65.0039 55.2102 64.8135 55.2288 64.7303 55.3124C64.6487 55.3936 64.6281 55.5715 64.6281 56.1893V56.964H62.8743V54.3658ZM73.2671 54.3658V51.7676H75.0209V52.5342C75.0209 53.0437 75.0469 53.3265 75.0987 53.3786C75.1525 53.4321 75.4769 53.4564 76.138 53.4564H77.0994V55.2102H76.1623C75.3967 55.2102 75.2063 55.2288 75.123 55.3124C75.0415 55.3936 75.0209 55.5715 75.0209 56.1893V56.964H73.2671V54.3658ZM109.642 54.3658V51.7676H111.396V52.5342C111.396 53.0437 111.422 53.3265 111.473 53.3786C111.527 53.4321 111.852 53.4564 112.513 53.4564H113.474V55.2102H112.537C111.771 55.2102 111.581 55.2288 111.498 55.3124C111.416 55.3936 111.396 55.5715 111.396 56.1893V56.964H109.642V54.3658ZM142.964 56.1974C142.964 55.6879 142.938 55.4051 142.886 55.353C142.832 55.2995 142.508 55.2752 141.847 55.2752H140.885V53.5214H141.822C142.588 53.5214 142.778 53.5028 142.862 53.4192C142.943 53.338 142.964 53.1601 142.964 52.5423V51.7676H144.717V56.964H142.964V56.1974ZM146.017 54.3658V51.7676H147.77V52.5342C147.77 53.0437 147.796 53.3265 147.848 53.3786C147.902 53.4321 148.226 53.4564 148.887 53.4564H149.849V55.2102H148.912C148.146 55.2102 147.956 55.2288 147.873 55.3124C147.791 55.3936 147.77 55.5715 147.77 56.1893V56.964H146.017V54.3658ZM129.778 55.4376V54.5607H130.544C131.054 54.5607 131.337 54.5346 131.389 54.4829C131.442 54.4291 131.467 54.1046 131.467 53.4436V52.4821H133.22V53.4192C133.22 54.1848 133.239 54.3753 133.323 54.4585C133.404 54.54 133.582 54.5607 134.2 54.5607H134.974V56.3145H129.778V55.4376ZM155.76 55.4376V54.5607H156.526C157.036 54.5607 157.319 54.5346 157.371 54.4829C157.424 54.4291 157.449 54.1046 157.449 53.4436V52.4821H159.202V53.4192C159.202 54.1848 159.221 54.3753 159.305 54.4585C159.386 54.54 159.564 54.5607 160.181 54.5607H160.956V56.3145H155.76V55.4376ZM17.211 55.3124C17.211 54.5468 17.1924 54.3563 17.1088 54.2731C17.0276 54.1916 16.8497 54.1709 16.2319 54.1709H15.4572V52.4172H20.6536V54.1709H19.887C19.3775 54.1709 19.0947 54.197 19.0426 54.2488C18.9892 54.3025 18.9648 54.627 18.9648 55.288V56.2495H17.211V55.3124ZM32.8002 55.3124C32.8002 54.5468 32.7816 54.3563 32.698 54.2731C32.6168 54.1916 32.4389 54.1709 31.8211 54.1709H31.0464V52.4172H41.4392V54.1709H40.6726C40.1631 54.1709 39.8803 54.197 39.8282 54.2488C39.7747 54.3025 39.7504 54.627 39.7504 55.288V56.2495H37.9966V55.3124C37.9966 54.5468 37.978 54.3563 37.8944 54.2731C37.8075 54.1858 37.5656 54.1709 36.2513 54.1709C35.1389 54.1709 34.6883 54.1926 34.6318 54.2488C34.5783 54.3025 34.554 54.627 34.554 55.288V56.2495H32.8002V55.3124ZM152.317 55.3124C152.317 54.5468 152.299 54.3563 152.215 54.2731C152.134 54.1916 151.956 54.1709 151.338 54.1709H150.563V52.4172H155.76V54.1709H154.993C154.484 54.1709 154.201 54.197 154.149 54.2488C154.095 54.3025 154.071 54.627 154.071 55.288V56.2495H152.317V55.3124ZM77.8139 50.2412V49.3643H78.5805C79.09 49.3643 79.3729 49.3382 79.4249 49.2865C79.4784 49.2327 79.5028 48.9082 79.5028 48.2472V47.2857H81.2565V48.2228C81.2565 48.9884 81.2752 49.1789 81.3587 49.2621C81.4399 49.3436 81.6179 49.3643 82.2356 49.3643H83.0103V51.1181H77.8139V50.2412ZM88.2067 50.2412V49.3643H88.9733C89.4828 49.3643 89.7656 49.3382 89.8177 49.2865C89.8712 49.2327 89.8955 48.9082 89.8955 48.2472V47.2857H91.6493V48.2228C91.6493 48.9884 91.6679 49.1789 91.7515 49.2621C91.8384 49.3494 92.0803 49.3643 93.3947 49.3643C94.507 49.3643 94.9576 49.3426 95.0141 49.2865C95.0676 49.2327 95.0919 48.9082 95.0919 48.2472V47.2857H96.8457V48.2228C96.8457 48.9884 96.8643 49.1789 96.9479 49.2621C97.0291 49.3436 97.207 49.3643 97.8248 49.3643H98.5995V51.1181H88.2067V50.2412ZM63.9785 50.116C63.9785 49.3504 63.9599 49.1599 63.8764 49.0767C63.7952 48.9952 63.6172 48.9745 62.9995 48.9745H62.2248V47.2208H72.6175V48.9745H71.8509C71.3414 48.9745 71.0586 49.0006 71.0065 49.0524C70.9531 49.1062 70.9287 49.4306 70.9287 50.0916V51.0531H69.1749V50.116C69.1749 49.3504 69.1563 49.1599 69.0728 49.0767C68.9858 48.9894 68.7439 48.9745 67.4296 48.9745C66.3173 48.9745 65.8666 48.9962 65.8101 49.0524C65.7567 49.1062 65.7323 49.4306 65.7323 50.0916V51.0531H63.9785V50.116ZM100.353 50.116C100.353 49.3504 100.335 49.1599 100.251 49.0767C100.17 48.9952 99.992 48.9745 99.3742 48.9745H98.5995V47.2208H103.796V48.9745H103.029C102.52 48.9745 102.237 49.0006 102.185 49.0524C102.131 49.1062 102.107 49.4306 102.107 50.0916V51.0531H100.353V50.116ZM115.942 50.116C115.942 49.3504 115.924 49.1599 115.84 49.0767C115.759 48.9952 115.581 48.9745 114.963 48.9745H114.189V47.2208H119.385V48.9745H118.618C118.109 48.9745 117.826 49.0006 117.774 49.0524C117.721 49.1062 117.696 49.4306 117.696 50.0916V51.0531H115.942V50.116ZM54.625 45.8046C54.625 45.2951 54.599 45.0123 54.5472 44.9602C54.4934 44.9067 54.169 44.8824 53.5079 44.8824H52.5465V43.1286H53.4836C54.2492 43.1286 54.4396 43.11 54.5229 43.0264C54.6044 42.9452 54.625 42.7673 54.625 42.1495V41.3748H56.3788V46.5712H54.625V45.8046ZM75.4106 45.8046C75.4106 45.2951 75.3846 45.0123 75.3328 44.9602C75.279 44.9067 74.9546 44.8824 74.2935 44.8824H73.332V43.1286H74.2692C75.0347 43.1286 75.2252 43.11 75.3084 43.0264C75.39 42.9452 75.4106 42.7673 75.4106 42.1495V41.3748H77.1644V46.5712H75.4106V45.8046ZM83.6599 43.973V41.3748H85.4137V42.1414C85.4137 42.6509 85.4397 42.9337 85.4915 42.9858C85.5453 43.0393 85.8697 43.0637 86.5307 43.0637H87.4922V44.8174H86.5551C85.7895 44.8174 85.5991 44.836 85.5158 44.9196C85.4343 45.0008 85.4137 45.1787 85.4137 45.7965V46.5712H83.6599V43.973ZM114.838 43.973V41.3748H116.592V42.1414C116.592 42.6509 116.618 42.9337 116.67 42.9858C116.724 43.0393 117.048 43.0637 117.709 43.0637H118.671V44.8174H117.733C116.968 44.8174 116.777 44.836 116.694 44.9196C116.613 45.0008 116.592 45.1787 116.592 45.7965V46.5712H114.838V43.973ZM18.0554 46.397C17.0381 46.2309 16.2435 46.0225 15.7306 45.7867C15.5773 45.7163 15.3287 45.6111 15.1785 45.5529C15.0283 45.4947 14.8466 45.398 14.7752 45.3378C14.7038 45.2779 14.5397 45.1804 14.4105 45.1216C14.2816 45.0627 14.1392 44.9704 14.0942 44.9162C14.0492 44.8618 13.9842 44.8174 13.9501 44.8174C13.7478 44.8174 12.404 43.5461 11.9243 42.9013C10.8157 41.4103 10.2422 39.9215 10.0677 38.0811C9.97767 37.1325 9.97733 19.3839 10.0673 18.4133C10.1336 17.6964 10.2531 17.0699 10.4384 16.4646C10.591 15.967 11.0031 14.9987 11.177 14.7298C11.2626 14.5972 11.4195 14.3489 11.5254 14.1777C11.9591 13.4784 13.0431 12.2875 13.5735 11.9279C14.872 11.047 15.8415 10.5761 16.8862 10.3193C17.6007 10.1437 17.5774 10.1474 18.4127 10.0689C19.3941 9.97657 37.1366 9.97725 38.0991 10.0696C39.384 10.1931 40.2237 10.4299 41.4717 11.0206C42.5502 11.5314 44.0069 12.7622 44.6859 13.7365C45.1927 14.4632 45.7912 15.5498 45.7912 15.7423C45.7912 15.7934 45.848 15.9477 45.9177 16.085C46.0506 16.3472 46.2475 17.1263 46.3744 17.8936C46.4296 18.2282 46.4441 21.023 46.4285 28.4813L46.4079 38.6142L46.2668 39.2313C46.1183 39.8802 45.9708 40.3677 45.8247 40.6928C45.7766 40.8 45.6606 41.0619 45.5669 41.275C45.4728 41.4882 45.372 41.6783 45.3422 41.6972C45.3125 41.7165 45.2275 41.866 45.1531 42.0301C45.079 42.1939 44.9728 42.3654 44.9177 42.4114C44.8622 42.4574 44.8168 42.521 44.8168 42.5525C44.8168 42.6658 44.0259 43.5833 43.5648 44.0052C43.3066 44.2413 42.8472 44.604 42.5434 44.8113C41.9517 45.2156 40.8996 45.7918 40.7528 45.7918C40.7037 45.7918 40.5677 45.8456 40.4507 45.9112C40.2165 46.0424 40.2507 46.033 39.1137 46.2728L38.3146 46.4413L28.2662 46.4325C22.7396 46.4274 18.1447 46.4115 18.0554 46.397ZM132.571 46.397C131.554 46.2309 130.759 46.0225 130.246 45.7867C130.093 45.7163 129.844 45.6111 129.694 45.5529C129.544 45.4947 129.362 45.398 129.291 45.3378C129.219 45.2779 129.055 45.1804 128.926 45.1216C128.797 45.0627 128.655 44.9704 128.61 44.9162C128.565 44.8618 128.5 44.8174 128.466 44.8174C128.263 44.8174 126.92 43.5461 126.44 42.9013C125.331 41.4103 124.758 39.9215 124.583 38.0811C124.493 37.1325 124.493 19.3839 124.583 18.4133C124.649 17.6964 124.769 17.0699 124.954 16.4646C125.107 15.967 125.519 14.9987 125.692 14.7298C125.778 14.5972 125.935 14.3489 126.041 14.1777C126.475 13.4784 127.559 12.2875 128.089 11.9279C129.387 11.047 130.357 10.5761 131.402 10.3193C132.116 10.1437 132.093 10.1474 132.928 10.0689C133.91 9.97657 151.652 9.97725 152.615 10.0696C153.899 10.1931 154.739 10.4299 155.987 11.0206C157.066 11.5314 158.522 12.7622 159.201 13.7365C159.708 14.4632 160.307 15.5498 160.307 15.7423C160.307 15.7934 160.363 15.9477 160.433 16.085C160.566 16.3472 160.763 17.1263 160.89 17.8936C160.945 18.2282 160.96 21.023 160.944 28.4813L160.923 38.6142L160.782 39.2313C160.634 39.8802 160.486 40.3677 160.34 40.6928C160.292 40.8 160.176 41.0619 160.082 41.275C159.988 41.4882 159.887 41.6783 159.858 41.6972C159.828 41.7165 159.743 41.866 159.669 42.0301C159.595 42.1939 159.488 42.3654 159.433 42.4114C159.378 42.4574 159.332 42.521 159.332 42.5525C159.332 42.6658 158.541 43.5833 158.08 44.0052C157.822 44.2413 157.363 44.604 157.059 44.8113C156.467 45.2156 155.415 45.7918 155.268 45.7918C155.219 45.7918 155.083 45.8456 154.966 45.9112C154.732 46.0424 154.766 46.033 153.629 46.2728L152.83 46.4413L142.782 46.4325C137.255 46.4274 132.66 46.4115 132.571 46.397ZM62.2248 45.0448V44.1679H62.9914C63.5009 44.1679 63.7837 44.1418 63.8358 44.0901C63.8892 44.0363 63.9136 43.7118 63.9136 43.0508V42.0893H65.6674V43.0264C65.6674 43.792 65.686 43.9825 65.7695 44.0657C65.8507 44.1473 66.0287 44.1679 66.6464 44.1679H67.4212V45.9217H62.2248V45.0448ZM95.1569 44.9196C95.1569 44.154 95.1383 43.9636 95.0547 43.8803C94.9735 43.7988 94.7956 43.7782 94.1778 43.7782H93.4031V42.0244H98.5995V43.7782H97.8329C97.3234 43.7782 97.0406 43.8042 96.9885 43.856C96.935 43.9098 96.9107 44.2342 96.9107 44.8952V45.8567H95.1569V44.9196ZM105.55 44.9196C105.55 44.154 105.531 43.9636 105.448 43.8803C105.366 43.7988 105.188 43.7782 104.571 43.7782H103.796V42.0244H108.992V43.7782H108.226C107.716 43.7782 107.433 43.8042 107.381 43.856C107.328 43.9098 107.303 44.2342 107.303 44.8952V45.8567H105.55V44.9196ZM59.8214 40.6082C59.8214 40.0987 59.7954 39.8159 59.7436 39.7638C59.6898 39.7104 59.3654 39.686 58.7043 39.686H57.7429V37.9322H58.68C59.4456 37.9322 59.636 37.9136 59.7193 37.83C59.8008 37.7489 59.8214 37.5709 59.8214 36.9532V36.1784H61.5752V41.3748H59.8214V40.6082ZM35.8531 41.1427C36.121 41.0866 36.4279 41.026 36.5351 41.0084C36.6423 40.9905 36.847 40.9225 36.9898 40.8576C37.1325 40.7923 37.4248 40.66 37.6393 40.5632C37.8538 40.4668 38.2192 40.2537 38.4513 40.0896C38.933 39.7496 39.8803 38.8571 39.8803 38.7428C39.8803 38.7012 39.9408 38.6119 40.0153 38.5449C40.3779 38.2164 40.9179 36.9823 41.1093 36.0431C41.2413 35.3963 41.2443 35.2153 41.2443 28.2736C41.2443 21.3406 41.22 20.369 41.0403 20.1704C41.0095 20.1363 40.9845 20.0287 40.9845 19.9313C40.9845 19.8338 40.8559 19.4772 40.699 19.1386C39.7456 17.0851 38.0609 15.7555 35.9116 15.3611C35.419 15.2707 34.4741 15.2613 27.9546 15.2799C19.8924 15.3025 20.3573 15.2816 19.452 15.6628C18.3988 16.1067 17.8156 16.492 17.1406 17.1896C16.3517 18.0049 15.9623 18.6098 15.6304 19.5348C15.2512 20.592 15.2539 20.5257 15.2776 28.5462C15.2989 35.7549 15.3019 35.8949 15.4349 36.3733C15.5993 36.964 16.006 37.8554 16.3446 38.3669C16.6589 38.8423 17.3893 39.6153 17.8582 39.9692C18.572 40.5081 19.4949 40.9168 20.4462 41.1147C20.9703 41.2239 21.5261 41.2327 28.1884 41.2385C34.4775 41.2439 35.4261 41.2321 35.8531 41.1427ZM150.369 41.1427C150.637 41.0866 150.943 41.026 151.051 41.0084C151.158 40.9905 151.363 40.9225 151.505 40.8576C151.648 40.7923 151.94 40.66 152.155 40.5632C152.369 40.4668 152.735 40.2537 152.967 40.0896C153.449 39.7496 154.396 38.8571 154.396 38.7428C154.396 38.7012 154.456 38.6119 154.531 38.5449C154.893 38.2164 155.433 36.9823 155.625 36.0431C155.757 35.3963 155.76 35.2153 155.76 28.2736C155.76 21.3406 155.735 20.369 155.556 20.1704C155.525 20.1363 155.5 20.0287 155.5 19.9313C155.5 19.8338 155.371 19.4772 155.214 19.1386C154.261 17.0851 152.576 15.7555 150.427 15.3611C149.935 15.2707 148.99 15.2613 142.47 15.2799C134.408 15.3025 134.873 15.2816 133.967 15.6628C132.914 16.1067 132.331 16.492 131.656 17.1896C130.867 18.0049 130.478 18.6098 130.146 19.5348C129.767 20.592 129.769 20.5257 129.793 28.5462C129.814 35.7549 129.817 35.8949 129.95 36.3733C130.115 36.964 130.521 37.8554 130.86 38.3669C131.174 38.8423 131.905 39.6153 132.374 39.9692C133.088 40.5081 134.01 40.9168 134.962 41.1147C135.486 41.2239 136.042 41.2327 142.704 41.2385C148.993 41.2439 149.942 41.2321 150.369 41.1427ZM51.832 39.8484V38.9715H52.5986C53.1081 38.9715 53.3909 38.9454 53.443 38.8937C53.4964 38.8399 53.5208 38.5155 53.5208 37.8544V36.8929H55.2746V37.83C55.2746 38.5956 55.2932 38.7861 55.3768 38.8693C55.4579 38.9509 55.6359 38.9715 56.2536 38.9715H57.0284V40.7253H51.832V39.8484ZM63.9785 39.7232C63.9785 38.9576 63.9599 38.7672 63.8764 38.6839C63.7952 38.6024 63.6172 38.5818 62.9995 38.5818H62.2248V36.828H67.4212V38.5818H66.6545C66.1451 38.5818 65.8622 38.6078 65.8101 38.6596C65.7567 38.7134 65.7323 39.0378 65.7323 39.6989V40.6603H63.9785V39.7232ZM95.1569 39.7232C95.1569 38.9576 95.1383 38.7672 95.0547 38.6839C94.9735 38.6024 94.7956 38.5818 94.1778 38.5818H93.4031V36.828H98.5995V38.5818H97.8329C97.3234 38.5818 97.0406 38.6078 96.9885 38.6596C96.935 38.7134 96.9107 39.0378 96.9107 39.6989V40.6603H95.1569V39.7232ZM110.746 39.7232C110.746 38.9576 110.727 38.7672 110.644 38.6839C110.563 38.6024 110.385 38.5818 109.767 38.5818H108.992V36.828H114.189V38.5818H113.422C112.913 38.5818 112.63 38.6078 112.578 38.6596C112.524 38.7134 112.5 39.0378 112.5 39.6989V40.6603H110.746V39.7232ZM57.6779 33.5802V30.982H59.4317V31.7486C59.4317 32.2581 59.4577 32.541 59.5095 32.5931C59.5633 32.6465 59.8877 32.6709 60.5488 32.6709H61.5103V34.4247H60.5731C59.8076 34.4247 59.6171 34.4433 59.5339 34.5268C59.4523 34.608 59.4317 34.786 59.4317 35.4037V36.1784H57.6779V33.5802ZM62.8743 33.5802V30.982H64.6281V31.7486C64.6281 32.2581 64.6541 32.541 64.7059 32.5931C64.7597 32.6465 65.0841 32.6709 65.7452 32.6709H66.7066V34.4247H65.7695C65.0039 34.4247 64.8135 34.4433 64.7303 34.5268C64.6487 34.608 64.6281 34.786 64.6281 35.4037V36.1784H62.8743V33.5802ZM75.4106 35.4118C75.4106 34.9023 75.3846 34.6195 75.3328 34.5674C75.279 34.514 74.9546 34.4896 74.2935 34.4896H73.332V32.7358H74.2692C75.0347 32.7358 75.2252 32.7172 75.3084 32.6337C75.39 32.5525 75.4106 32.3745 75.4106 31.7568V30.982H77.1644V36.1784H75.4106V35.4118ZM109.642 33.5802V30.982H111.396V31.7486C111.396 32.2581 111.422 32.541 111.473 32.5931C111.527 32.6465 111.852 32.6709 112.513 32.6709H113.474V34.4247H112.537C111.771 34.4247 111.581 34.4433 111.498 34.5268C111.416 34.608 111.396 34.786 111.396 35.4037V36.1784H109.642V33.5802ZM23.7715 36.0062C23.4832 35.9629 22.7027 35.7024 22.5972 35.6145C22.5407 35.5675 22.473 35.5289 22.4463 35.5289C22.3776 35.5289 21.8847 35.177 21.6929 34.9913C21.0873 34.404 20.7994 33.9209 20.589 33.1408C20.4567 32.6506 20.454 32.5295 20.4736 28.0915L20.4936 23.5447L20.6489 23.1262C21.1391 21.8028 22.1472 20.8795 23.4514 20.5591C23.8283 20.4665 24.4088 20.457 28.4205 20.4766L32.9626 20.4989L33.3936 20.6603C34.69 21.1454 35.4921 22.0061 35.9099 23.3607C36.0533 23.8258 36.0537 23.8323 36.0307 28.3947L36.0077 32.9632L35.8477 33.3854C35.5916 34.0616 35.2404 34.5809 34.7191 35.0549C34.3104 35.4264 33.8182 35.7058 33.3198 35.8496C33.1591 35.8959 32.943 35.9595 32.8391 35.991C32.6625 36.0448 24.123 36.0593 23.7715 36.0062ZM138.287 36.0062C137.999 35.9629 137.218 35.7024 137.113 35.6145C137.056 35.5675 136.989 35.5289 136.962 35.5289C136.893 35.5289 136.4 35.177 136.208 34.9913C135.603 34.404 135.315 33.9209 135.104 33.1408C134.972 32.6506 134.97 32.5295 134.989 28.0915L135.009 23.5447L135.164 23.1262C135.655 21.8028 136.663 20.8795 137.967 20.5591C138.344 20.4665 138.924 20.457 142.936 20.4766L147.478 20.4989L147.909 20.6603C149.205 21.1454 150.008 22.0061 150.425 23.3607C150.569 23.8258 150.569 23.8323 150.546 28.3947L150.523 32.9632L150.363 33.3854C150.107 34.0616 149.756 34.5809 149.235 35.0549C148.826 35.4264 148.334 35.7058 147.835 35.8496C147.675 35.8959 147.458 35.9595 147.355 35.991C147.178 36.0448 138.638 36.0593 138.287 36.0062ZM105.55 34.5268C105.55 33.7612 105.531 33.5708 105.448 33.4875C105.366 33.406 105.188 33.3854 104.571 33.3854H103.796V31.6316H108.992V33.3854H108.226C107.716 33.3854 107.433 33.4114 107.381 33.4632C107.328 33.517 107.303 33.8414 107.303 34.5025V35.4639H105.55V34.5268ZM65.0178 30.2154C65.0178 29.7059 64.9918 29.4231 64.94 29.371C64.8862 29.3176 64.5618 29.2932 63.9007 29.2932H62.9393V27.5394H63.8764C64.642 27.5394 64.8324 27.5208 64.9156 27.4373C64.9972 27.3561 65.0178 27.1781 65.0178 26.5604V25.7857H66.7716V30.982H65.0178V30.2154ZM73.2671 25.7857V20.5893H75.0209V21.3559C75.0209 21.8654 75.0469 22.1482 75.0987 22.2003C75.1525 22.2537 75.4769 22.2781 76.138 22.2781H77.0994V24.0319H76.1623C75.3967 24.0319 75.2063 24.0505 75.123 24.134C75.0358 24.221 75.0209 24.4629 75.0209 25.7772C75.0209 26.8895 75.0425 27.3402 75.0987 27.3967C75.1525 27.4501 75.4769 27.4745 76.138 27.4745H77.0994V29.2283H76.1623C75.3967 29.2283 75.2063 29.2469 75.123 29.3304C75.0415 29.4116 75.0209 29.5896 75.0209 30.2073V30.982H73.2671V25.7857ZM104.445 28.3838V25.7857H106.199V26.5523C106.199 27.0617 106.225 27.3446 106.277 27.3967C106.331 27.4501 106.655 27.4745 107.316 27.4745H108.278V29.2283H107.341C106.575 29.2283 106.385 29.2469 106.301 29.3304C106.22 29.4116 106.199 29.5896 106.199 30.2073V30.982H104.445V28.3838ZM51.832 29.4556V28.5787H52.5986C53.1081 28.5787 53.3909 28.5527 53.443 28.5009C53.4964 28.4471 53.5208 28.1227 53.5208 27.4616V26.5002H55.2746V27.4373C55.2746 28.2029 55.2932 28.3933 55.3768 28.4765C55.4579 28.5581 55.6359 28.5787 56.2536 28.5787H57.0284V30.3325H51.832V29.4556ZM58.7822 29.3304C58.7822 28.5648 58.7635 28.3744 58.68 28.2912C58.5988 28.2096 58.4208 28.189 57.8031 28.189H57.0284V26.4352H62.2248V28.189H61.4582C60.9487 28.189 60.6658 28.215 60.6137 28.2668C60.5603 28.3206 60.5359 28.645 60.5359 29.3061V30.2675H58.7822V29.3304ZM100.353 29.3304C100.353 28.5648 100.335 28.3744 100.251 28.2912C100.17 28.2096 99.992 28.189 99.3742 28.189H98.5995V26.4352H103.796V28.189H103.029C102.52 28.189 102.237 28.215 102.185 28.2668C102.131 28.3206 102.107 28.645 102.107 29.3061V30.2675H100.353V29.3304ZM115.942 29.3304C115.942 28.5648 115.924 28.3744 115.84 28.2912C115.759 28.2096 115.581 28.189 114.963 28.189H114.189V26.4352H119.385V28.189H118.618C118.109 28.189 117.826 28.215 117.774 28.2668C117.721 28.3206 117.696 28.645 117.696 29.3061V30.2675H115.942V29.3304ZM54.625 25.019C54.625 24.5096 54.599 24.2267 54.5472 24.1746C54.4934 24.1212 54.169 24.0968 53.5079 24.0968H52.5465V22.343H53.4836C54.2492 22.343 54.4396 22.3244 54.5229 22.2409C54.6044 22.1597 54.625 21.9817 54.625 21.364V20.5893H56.3788V25.7857H54.625V25.019ZM83.6599 23.1875V20.5893H85.4137V21.3559C85.4137 21.8654 85.4397 22.1482 85.4915 22.2003C85.5453 22.2537 85.8697 22.2781 86.5307 22.2781H87.4922V24.0319H86.5551C85.7895 24.0319 85.5991 24.0505 85.5158 24.134C85.4343 24.2152 85.4137 24.3932 85.4137 25.0109V25.7857H83.6599V23.1875ZM109.642 23.1875V20.5893H111.396V21.3559C111.396 21.8654 111.422 22.1482 111.473 22.2003C111.527 22.2537 111.852 22.2781 112.513 22.2781H113.474V24.0319H112.537C111.771 24.0319 111.581 24.0505 111.498 24.134C111.416 24.2152 111.396 24.3932 111.396 25.0109V25.7857H109.642V23.1875ZM58.7822 24.134C58.7822 23.3684 58.7635 23.178 58.68 23.0948C58.5988 23.0132 58.4208 22.9926 57.8031 22.9926H57.0284V21.2388H62.2248V22.9926H61.4582C60.9487 22.9926 60.6658 23.0186 60.6137 23.0704C60.5603 23.1242 60.5359 23.4486 60.5359 24.1097V25.0711H58.7822V24.134ZM100.353 24.134C100.353 23.3684 100.335 23.178 100.251 23.0948C100.17 23.0132 99.992 22.9926 99.3742 22.9926H98.5995V21.2388H103.796V22.9926H103.029C102.52 22.9926 102.237 23.0186 102.185 23.0704C102.131 23.1242 102.107 23.4486 102.107 24.1097V25.0711H100.353V24.134ZM78.4635 17.9911V15.3929H80.2173V16.1595C80.2173 16.669 80.2433 16.9518 80.2951 17.0039C80.3489 17.0573 80.6733 17.0817 81.3344 17.0817H82.2958V18.8355H81.3587C80.5931 18.8355 80.4027 18.8541 80.3194 18.9376C80.2379 19.0188 80.2173 19.1968 80.2173 19.8145V20.5893H78.4635V17.9911ZM101.393 19.8227C101.393 19.3132 101.367 19.0303 101.315 18.9782C101.261 18.9248 100.937 18.9004 100.275 18.9004H99.314V17.1466H100.251C101.017 17.1466 101.207 17.128 101.29 17.0445C101.372 16.9633 101.393 16.7853 101.393 16.1676V15.3929H103.146V20.5893H101.393V19.8227ZM116.982 19.8227C116.982 19.3132 116.956 19.0303 116.904 18.9782C116.85 18.9248 116.526 18.9004 115.865 18.9004H114.903V17.1466H115.84C116.606 17.1466 116.796 17.128 116.88 17.0445C116.961 16.9633 116.982 16.7853 116.982 16.1676V15.3929H118.736V20.5893H116.982V19.8227ZM51.832 19.0628V18.1859H52.5986C53.1081 18.1859 53.3909 18.1599 53.443 18.1081C53.4964 18.0543 53.5208 17.7299 53.5208 17.0688V16.1074H55.2746V17.0445C55.2746 17.8101 55.2932 18.0005 55.3768 18.0838C55.4579 18.1653 55.6359 18.1859 56.2536 18.1859H57.0284V19.9397H51.832V19.0628ZM83.0103 19.0628V18.1859H83.7769C84.2864 18.1859 84.5692 18.1599 84.6213 18.1081C84.6748 18.0543 84.6992 17.7299 84.6992 17.0688V16.1074H86.4529V17.0445C86.4529 17.8101 86.4715 18.0005 86.5551 18.0838C86.6363 18.1653 86.8142 18.1859 87.432 18.1859H88.2067V19.9397H83.0103V19.0628ZM69.1749 18.9376C69.1749 18.1721 69.1563 17.9816 69.0728 17.8984C68.9916 17.8168 68.8136 17.7962 68.1959 17.7962H67.4212V16.0424H77.8139V17.7962H77.0473C76.5378 17.7962 76.255 17.8222 76.2029 17.874C76.1495 17.9278 76.1251 18.2522 76.1251 18.9133V19.8748H74.3713V18.9376C74.3713 18.1721 74.3527 17.9816 74.2692 17.8984C74.1822 17.8111 73.9403 17.7962 72.626 17.7962C71.5136 17.7962 71.063 17.8178 71.0065 17.874C70.9531 17.9278 70.9287 18.2522 70.9287 18.9133V19.8748H69.1749V18.9376ZM89.9605 18.9376C89.9605 18.1721 89.9419 17.9816 89.8583 17.8984C89.7771 17.8168 89.5992 17.7962 88.9814 17.7962H88.2067V16.0424H93.4031V17.7962H92.6365C92.127 17.7962 91.8442 17.8222 91.7921 17.874C91.7386 17.9278 91.7143 18.2522 91.7143 18.9133V19.8748H89.9605V18.9376ZM110.746 18.9376C110.746 18.1721 110.727 17.9816 110.644 17.8984C110.563 17.8168 110.385 17.7962 109.767 17.7962H108.992V16.0424H114.189V17.7962H113.422C112.913 17.7962 112.63 17.8222 112.578 17.874C112.524 17.9278 112.5 18.2522 112.5 18.9133V19.8748H110.746V18.9376ZM52.4815 12.7947V10.1965H54.2353V10.9631C54.2353 11.4726 54.2614 11.7554 54.3131 11.8075C54.3669 11.8609 54.6913 11.8853 55.3524 11.8853H56.3139V13.6391H55.3768C54.6112 13.6391 54.4207 13.6577 54.3375 13.7413C54.2559 13.8224 54.2353 14.0004 54.2353 14.6181V15.3929H52.4815V12.7947ZM83.6599 12.7947V10.1965H85.4137V10.9631C85.4137 11.4726 85.4397 11.7554 85.4915 11.8075C85.5453 11.8609 85.8697 11.8853 86.5307 11.8853H87.4922V13.6391H86.5551C85.7895 13.6391 85.5991 13.6577 85.5158 13.7413C85.4343 13.8224 85.4137 14.0004 85.4137 14.6181V15.3929H83.6599V12.7947ZM111.785 14.6263C111.785 14.1168 111.759 13.8339 111.708 13.7818C111.654 13.7284 111.329 13.704 110.668 13.704H109.707V11.9503H110.644C111.409 11.9503 111.6 11.9316 111.683 11.8481C111.765 11.7669 111.785 11.5889 111.785 10.9712V10.1965H113.539V15.3929H111.785V14.6263ZM77.8139 13.8664V12.9895H78.5805C79.09 12.9895 79.3729 12.9635 79.4249 12.9117C79.4784 12.8579 79.5028 12.5335 79.5028 11.8724V10.911H81.2565V11.8481C81.2565 12.6137 81.2752 12.8041 81.3587 12.8874C81.4399 12.9689 81.6179 12.9895 82.2356 12.9895H83.0103V14.7433H77.8139V13.8664ZM103.796 13.8664V12.9895H104.562C105.072 12.9895 105.355 12.9635 105.407 12.9117C105.46 12.8579 105.485 12.5335 105.485 11.8724V10.911H107.239V11.8481C107.239 12.6137 107.257 12.8041 107.341 12.8874C107.422 12.9689 107.6 12.9895 108.218 12.9895H108.992V14.7433H103.796V13.8664ZM95.1569 13.7413C95.1569 12.9757 95.1383 12.7852 95.0547 12.702C94.9735 12.6204 94.7956 12.5998 94.1778 12.5998H93.4031V10.846H98.5995V12.5998H97.8329C97.3234 12.5998 97.0406 12.6259 96.9885 12.6776C96.935 12.7314 96.9107 13.0558 96.9107 13.7169V14.6784H95.1569V13.7413Z" fill="#1A1B1E"/>
</svg>
