<svg width="22" height="24" viewBox="0 0 22 24" fill="none" xmlns="http://www.w3.org/2000/svg">
<path d="M0.399187 1.20373C0.11855 1.53928 -0.0231532 1.96944 0.00311046 2.40609V21.3337C-0.0232295 21.7703 0.118482 22.2005 0.399187 22.536L0.462519 22.5977L11.0654 11.9949V11.7448L0.462519 1.1416L0.399187 1.20373Z" fill="#1A1B1E"/>
<path d="M16.3109 15.5308L12.7769 11.995V11.7449L16.3118 8.20996L16.3914 8.25541L20.5788 10.6347C21.7749 11.3142 21.7749 12.4261 20.5788 13.1061L16.3914 15.4854L16.3109 15.5308Z" fill="#1A1B1E"/>
<path d="M15.5356 16.3405L11.9211 12.7256L1.25488 23.3917C1.4986 23.6066 1.80982 23.7295 2.13464 23.7391C2.45946 23.7487 2.7774 23.6444 3.03338 23.4442L15.5356 16.3405Z" fill="#1A1B1E"/>
<path d="M15.5356 7.39924L3.03338 0.295525C2.7774 0.0953417 2.45946 -0.00898943 2.13464 0.000607692C1.80982 0.0102048 1.4986 0.133125 1.25488 0.348073L11.9211 11.0143L15.5356 7.39924Z" fill="#1A1B1E"/>
<path opacity="0.12" d="M1.25464 22.4118C0.974026 22.0763 0.832327 21.6461 0.85856 21.2095V21.3345C0.832311 21.7712 0.974012 22.2013 1.25464 22.5369L1.3184 22.4731L1.25464 22.4118Z" fill="black"/>
</svg>
