<svg width="51" height="50" viewBox="0 0 51 50" fill="none" xmlns="http://www.w3.org/2000/svg">
<rect x="1.19336" y="0.5" width="49" height="49" rx="24.5" stroke="white" stroke-opacity="0.25"/>
<path fill-rule="evenodd" clip-rule="evenodd" d="M31.6934 17H19.6934C18.5904 17 17.6934 17.897 17.6934 19V31C17.6934 32.103 18.5904 33 19.6934 33H25.6934V27.5H23.6934V25H25.6934V23C25.6934 22.2044 26.0094 21.4413 26.572 20.8787C27.1346 20.3161 27.8977 20 28.6934 20H30.6934V22.5H29.6934C29.1414 22.5 28.6934 22.448 28.6934 23V25H31.1934L30.1934 27.5H28.6934V33H31.6934C32.7964 33 33.6934 32.103 33.6934 31V19C33.6934 17.897 32.7964 17 31.6934 17Z" fill="#F1F2F3"/>
</svg>
