<svg width="51" height="50" viewBox="0 0 51 50" fill="none" xmlns="http://www.w3.org/2000/svg">
<rect x="1.19336" y="0.5" width="49" height="49" rx="24.5" stroke="white" stroke-opacity="0.25"/>
<path d="M21.3343 23.7168V26.5435H25.6646C25.5443 27.6862 24.4016 29.8514 21.3343 29.8514C18.7481 29.8514 16.6431 27.6862 16.6431 25.0399C16.6431 22.3936 18.6278 20.2284 21.214 20.2284C22.7176 20.2284 23.74 20.8299 24.2813 21.3711L26.3863 19.3864C25.3076 18.3627 23.9494 17.6819 22.4837 17.4302C21.0179 17.1785 19.5104 17.3672 18.1519 17.9724C16.7935 18.5776 15.645 19.5722 14.8518 20.8302C14.0587 22.0882 13.6564 23.5532 13.696 25.0399C13.696 29.25 17.1242 32.6782 21.3343 32.6782C25.7849 32.6782 28.6718 29.4905 28.6718 25.1602L28.5515 23.7168" fill="#F1F2F3"/>
<path fill-rule="evenodd" clip-rule="evenodd" d="M35.017 25.6113V28.2877H33.2728V25.6113H30.5964V23.8671H33.2728V21.1907H35.017V23.8671H37.6934V25.6113H35.017Z" fill="#F1F2F3"/>
</svg>
