<svg width="51" height="50" viewBox="0 0 51 50" fill="none" xmlns="http://www.w3.org/2000/svg">
<rect x="1.19336" y="0.5" width="49" height="49" rx="24.5" stroke="white" stroke-opacity="0.25"/>
<path d="M25.6934 18.4458C27.8138 18.4458 28.103 18.4458 28.9705 18.4458C29.7416 18.4458 30.1271 18.6386 30.4163 18.7349C30.8018 18.9277 31.091 19.0241 31.3801 19.3133C31.6693 19.6024 31.862 19.8916 31.9584 20.2771C32.0548 20.5663 32.1512 20.9518 32.2476 21.7229C32.2476 22.5904 32.2476 22.7831 32.2476 25C32.2476 27.2169 32.2476 27.4096 32.2476 28.2771C32.2476 29.0482 32.0548 29.4337 31.9584 29.7229C31.7656 30.1084 31.6693 30.3976 31.3801 30.6867C31.091 30.9759 30.8018 31.1687 30.4163 31.2651C30.1271 31.3614 29.7416 31.4578 28.9705 31.5542C28.103 31.5542 27.9102 31.5542 25.6934 31.5542C23.4765 31.5542 23.2837 31.5542 22.4163 31.5542C21.6452 31.5542 21.2596 31.3614 20.9705 31.2651C20.5849 31.0723 20.2958 30.9759 20.0066 30.6867C19.7175 30.3976 19.5247 30.1084 19.4283 29.7229C19.3319 29.4337 19.2355 29.0482 19.1391 28.2771C19.1391 27.4096 19.1391 27.2169 19.1391 25C19.1391 22.7831 19.1391 22.5904 19.1391 21.7229C19.1391 20.9518 19.3319 20.5663 19.4283 20.2771C19.6211 19.8916 19.7175 19.6024 20.0066 19.3133C20.2958 19.0241 20.5849 18.8313 20.9705 18.7349C21.2596 18.6386 21.6452 18.5422 22.4163 18.4458C23.2837 18.4458 23.5729 18.4458 25.6934 18.4458ZM25.6934 17C23.4765 17 23.2837 17 22.4163 17C21.5488 17 20.9705 17.1928 20.4885 17.3855C20.0066 17.5783 19.5247 17.8675 19.0428 18.3494C18.5608 18.8313 18.3681 19.2169 18.0789 19.7952C17.8861 20.2771 17.7897 20.8554 17.6934 21.7229C17.6934 22.5904 17.6934 22.8795 17.6934 25C17.6934 27.2169 17.6934 27.4096 17.6934 28.2771C17.6934 29.1446 17.8861 29.7229 18.0789 30.2048C18.2717 30.6867 18.5608 31.1687 19.0428 31.6506C19.5247 32.1325 19.9102 32.3253 20.4885 32.6145C20.9705 32.8072 21.5488 32.9036 22.4163 33C23.2837 33 23.5729 33 25.6934 33C27.8138 33 28.103 33 28.9705 33C29.8379 33 30.4163 32.8072 30.8982 32.6145C31.3801 32.4217 31.862 32.1325 32.344 31.6506C32.8259 31.1687 33.0187 30.7831 33.3078 30.2048C33.5006 29.7229 33.597 29.1446 33.6934 28.2771C33.6934 27.4096 33.6934 27.1205 33.6934 25C33.6934 22.8795 33.6934 22.5904 33.6934 21.7229C33.6934 20.8554 33.5006 20.2771 33.3078 19.7952C33.115 19.3133 32.8259 18.8313 32.344 18.3494C31.862 17.8675 31.4765 17.6747 30.8982 17.3855C30.4163 17.1928 29.8379 17.0964 28.9705 17C28.103 17 27.9102 17 25.6934 17Z" fill="#F1F2F3"/>
<path d="M25.6934 20.8554C23.3801 20.8554 21.5488 22.6867 21.5488 25C21.5488 27.3133 23.3801 29.1446 25.6934 29.1446C28.0066 29.1446 29.8379 27.3133 29.8379 25C29.8379 22.6867 28.0066 20.8554 25.6934 20.8554ZM25.6934 27.6988C24.2476 27.6988 22.9946 26.5422 22.9946 25C22.9946 23.5542 24.1512 22.3012 25.6934 22.3012C27.1391 22.3012 28.3922 23.4578 28.3922 25C28.3922 26.4458 27.1391 27.6988 25.6934 27.6988Z" fill="#F1F2F3"/>
<path d="M29.9343 21.7229C30.4666 21.7229 30.8982 21.2914 30.8982 20.759C30.8982 20.2267 30.4666 19.7952 29.9343 19.7952C29.402 19.7952 28.9705 20.2267 28.9705 20.759C28.9705 21.2914 29.402 21.7229 29.9343 21.7229Z" fill="#F1F2F3"/>
</svg>
