<svg width="18" height="23" viewBox="0 0 18 23" fill="none" xmlns="http://www.w3.org/2000/svg">
<path d="M14.7973 12.3008C14.8081 11.4662 15.0298 10.6478 15.4418 9.92182C15.8538 9.19587 16.4428 8.58593 17.1539 8.14876C16.7021 7.5036 16.1062 6.97266 15.4134 6.5981C14.7205 6.22355 13.9499 6.01571 13.1627 5.99108C11.4835 5.81482 9.85552 6.99591 8.99981 6.99591C8.12754 6.99591 6.81004 6.00858 5.39131 6.03777C4.47364 6.06742 3.57929 6.33427 2.79541 6.81233C2.01154 7.29039 1.36486 7.96335 0.918393 8.76564C-1.01561 12.1141 0.426982 17.0351 2.27959 19.7417C3.20649 21.0671 4.28977 22.5475 5.70722 22.495C7.09428 22.4375 7.61232 21.6105 9.28662 21.6105C10.9454 21.6105 11.4314 22.495 12.8776 22.4616C14.366 22.4375 15.3038 21.1304 16.1981 19.7925C16.8641 18.8481 17.3766 17.8044 17.7166 16.7C16.8518 16.3343 16.1139 15.7221 15.5948 14.9398C15.0757 14.1575 14.7983 13.2397 14.7973 12.3008Z" fill="#1A1B1E"/>
<path d="M12.0659 4.21083C12.8774 3.23663 13.2772 1.98445 13.1804 0.720215C11.9406 0.850435 10.7953 1.44299 9.97283 2.37982C9.57069 2.83749 9.26269 3.36993 9.06645 3.9467C8.8702 4.52347 8.78956 5.13326 8.82912 5.74121C9.44926 5.7476 10.0628 5.61319 10.6234 5.3481C11.1841 5.08301 11.6773 4.69416 12.0659 4.21083Z" fill="#1A1B1E"/>
</svg>
