<svg width="51" height="50" viewBox="0 0 51 50" fill="none" xmlns="http://www.w3.org/2000/svg">
<rect x="1.19336" y="0.5" width="49" height="49" rx="24.5" stroke="white" stroke-opacity="0.25"/>
<path d="M36.1434 19.4286C35.8684 18.4286 35.1809 17.7143 34.2184 17.4286C32.5684 17 25.5559 17 25.5559 17C25.5559 17 18.6809 17 16.8934 17.4286C15.9309 17.7143 15.2434 18.4286 14.9684 19.4286C14.6934 21.2857 14.6934 25 14.6934 25C14.6934 25 14.6934 28.7143 15.1059 30.5714C15.3809 31.5714 16.0684 32.2857 17.0309 32.5714C18.6809 33 25.6934 33 25.6934 33C25.6934 33 32.5683 33 34.3558 32.5714C35.3183 32.2857 36.0059 31.5714 36.2809 30.5714C36.6934 28.7143 36.6934 25 36.6934 25C36.6934 25 36.6934 21.2857 36.1434 19.4286ZM23.4934 28.4286V21.5714L29.2684 25L23.4934 28.4286Z" fill="#F1F2F3"/>
</svg>
