<svg width="24" height="24" viewBox="0 0 24 24" fill="none" xmlns="http://www.w3.org/2000/svg">
<g clip-path="url(#clip0_5512_46681)">
<path d="M20.0143 9.23512L13.7664 15.4816C12.7923 16.4558 11.2067 16.4558 10.2325 15.4816L3.99023 9.2379L5.59945 7.62868L11.7056 13.7348C11.8668 13.896 12.1322 13.896 12.2934 13.7348L18.4037 7.62451L20.0143 9.23512Z" fill="#F1F2F3"/>
<path fill-rule="evenodd" clip-rule="evenodd" d="M23.3996 13.2V6.24859C23.3996 4.87145 22.2782 3.75 20.8996 3.75H3.0982C1.72106 3.75 0.599609 4.87145 0.599609 6.24859V10.6371H2.87724V6.44314C2.87724 6.32919 2.92449 6.22358 2.99953 6.14853C3.07457 6.07349 3.1774 6.02625 3.29275 6.02625H20.7065C20.9358 6.02625 21.1234 6.21385 21.1234 6.44314V13.2H23.3996ZM10.0364 20.3758V18.0981H3.29275C3.06345 18.0981 2.87724 17.9119 2.87724 17.6826V13.4887H0.599609V17.8772C0.599609 19.2543 1.72106 20.3758 3.0982 20.3758H10.0364Z" fill="#F1F2F3"/>
<path d="M19.6502 14.2502V17.7242L20.7497 18.8237C20.9237 18.9992 20.9237 19.2842 20.7497 19.4597L19.6502 20.5592V24.0332L22.6352 21.0482C23.6867 19.9967 23.6867 18.2852 22.6352 17.2337L19.6502 14.2502Z" fill="#F1F2F3"/>
<rect x="12.8359" y="18.0981" width="8.74658" height="2.27063" fill="#F1F2F3"/>
</g>
<defs>
<clipPath id="clip0_5512_46681">
<rect width="24" height="24" fill="white"/>
</clipPath>
</defs>
</svg>
