<svg width="24" height="24" viewBox="0 0 24 24" fill="none" xmlns="http://www.w3.org/2000/svg">
<g clip-path="url(#clip0_5512_46688)">
<path d="M3.9857 9.23512L10.2336 15.4816C11.2077 16.4558 12.7933 16.4558 13.7675 15.4816L20.0098 9.2379L18.4005 7.62868L12.2944 13.7348C12.1332 13.896 11.8678 13.896 11.7066 13.7348L5.5963 7.62451L3.9857 9.23512Z" fill="#F1F2F3"/>
<path fill-rule="evenodd" clip-rule="evenodd" d="M0.600393 13.2V6.24859C0.600393 4.87145 1.72184 3.75 3.10037 3.75H20.9018C22.2789 3.75 23.4004 4.87145 23.4004 6.24859V10.6371H21.1228V6.44314C21.1228 6.32919 21.0755 6.22358 21.0005 6.14853C20.9254 6.07349 20.8226 6.02625 20.7073 6.02625H3.29353C3.06424 6.02625 2.87663 6.21385 2.87663 6.44314V13.2H0.600393ZM13.9636 20.3758V18.0981H20.7073C20.9365 18.0981 21.1228 17.9119 21.1228 17.6826V13.4887H23.4004V17.8772C23.4004 19.2543 22.2789 20.3758 20.9018 20.3758H13.9636Z" fill="#F1F2F3"/>
<path d="M4.3498 14.2502V17.7242L3.2503 18.8237C3.0763 18.9992 3.0763 19.2842 3.2503 19.4597L4.3498 20.5592V24.0332L1.3648 21.0482C0.313297 19.9967 0.313297 18.2852 1.3648 17.2337L4.3498 14.2502Z" fill="#F1F2F3"/>
<rect width="8.74658" height="2.27063" transform="matrix(-1 0 0 1 11.1641 18.0981)" fill="#F1F2F3"/>
</g>
<defs>
<clipPath id="clip0_5512_46688">
<rect width="24" height="24" fill="white" transform="matrix(-1 0 0 1 24 0)"/>
</clipPath>
</defs>
</svg>
